<?xml version="1.0" standalone="yes"?>

<svg version="1.1" viewBox="0.0 0.0 592.5538057742782 497.8635170603674" fill="none" stroke="none" stroke-linecap="square" stroke-miterlimit="10" xmlns="http://www.w3.org/2000/svg" xmlns:xlink="http://www.w3.org/1999/xlink"><clipPath id="p.0"><path d="m0 0l592.55383 0l0 497.86353l-592.55383 0l0 -497.86353z" clip-rule="nonzero"></path></clipPath><g clip-path="url(#p.0)"><path fill="#000000" fill-opacity="0.0" d="m0 0l592.55383 0l0 497.86353l-592.55383 0z" fill-rule="nonzero"></path><path fill="#cfe2f3" d="m135.7979 174.9906l0 0c0 -30.29654 24.560196 -54.856743 54.85675 -54.856743l246.06602 0c14.54892 0 28.501953 5.7795334 38.78958 16.067162c10.287628 10.287643 16.06717 24.240662 16.06717 38.78958l0 219.42038c0 30.29654 -24.56018 54.85675 -54.85675 54.85675l-246.06602 0c-30.296555 0 -54.85675 -24.560211 -54.85675 -54.85675z" fill-rule="nonzero"></path><path stroke="#000000" stroke-width="1.0" stroke-linejoin="round" stroke-linecap="butt" d="m135.7979 174.9906l0 0c0 -30.29654 24.560196 -54.856743 54.85675 -54.856743l246.06602 0c14.54892 0 28.501953 5.7795334 38.78958 16.067162c10.287628 10.287643 16.06717 24.240662 16.06717 38.78958l0 219.42038c0 30.29654 -24.56018 54.85675 -54.85675 54.85675l-246.06602 0c-30.296555 0 -54.85675 -24.560211 -54.85675 -54.85675z" fill-rule="nonzero"></path><path fill="#000000" fill-opacity="0.0" d="m369.95013 120.13386l130.70865 0l0 49.6063l-130.70865 0z" fill-rule="nonzero"></path><path fill="#000000" d="m385.38763 157.71324q1.8125 0 2.6875 -0.484375q0.890625 -0.484375 0.890625 -1.53125q0 -1.09375 -0.875 -1.734375q-0.859375 -0.640625 -2.84375 -1.4375q-0.953125 -0.390625 -1.84375 -0.78125q-0.875 -0.40625 -1.515625 -0.9375q-0.640625 -0.546875 -1.03125 -1.3125q-0.375 -0.78125 -0.375 -1.890625q0 -2.21875 1.625 -3.515625q1.640625 -1.296875 4.453125 -1.296875q0.703125 0 1.40625 0.09375q0.71875 0.078125 1.3125 0.1875q0.609375 0.109375 1.078125 0.234375q0.46875 0.125 0.71875 0.234375l-0.546875 2.546875q-0.46875 -0.25 -1.5 -0.515625q-1.015625 -0.28125 -2.46875 -0.28125q-1.234375 0 -2.171875 0.5q-0.921875 0.5 -0.921875 1.546875q0 0.546875 0.203125 0.96875q0.203125 0.40625 0.640625 0.75q0.4375 0.328125 1.078125 0.625q0.640625 0.28125 1.53125 0.609375q1.1875 0.4375 2.109375 0.875q0.9375 0.4375 1.578125 1.015625q0.65625 0.5625 1.015625 1.390625q0.359375 0.8125 0.359375 2.0q0 2.296875 -1.71875 3.484375q-1.71875 1.1875 -4.875 1.1875q-2.21875 0 -3.46875 -0.375q-1.234375 -0.375 -1.6875 -0.5625l0.546875 -2.5625q0.515625 0.203125 1.625 0.59375q1.125 0.375 2.984375 0.375zm13.178284 -14.5l6.296875 0l0 2.5l-6.296875 0l0 7.671875q0 1.25 0.1875 2.078125q0.203125 0.8125 0.578125 1.28125q0.390625 0.453125 0.953125 0.65625q0.578125 0.1875 1.359375 0.1875q1.34375 0 2.15625 -0.296875q0.8125 -0.3125 1.140625 -0.453125l0.5625 2.46875q-0.4375 0.234375 -1.5625 0.5625q-1.125 0.34375 -2.5625 0.34375q-1.6875 0 -2.796875 -0.4375q-1.109375 -0.4375 -1.78125 -1.296875q-0.671875 -0.859375 -0.9375 -2.125q-0.265625 -1.265625 -0.265625 -2.9375l0 -14.84375l2.96875 -0.515625l0 5.15625zm15.707764 14.5q1.0625 0 1.875 -0.046875q0.8125 -0.046875 1.359375 -0.1875l0 -4.953125q-0.3125 -0.15625 -1.046875 -0.265625q-0.71875 -0.125 -1.734375 -0.125q-0.671875 0 -1.421875 0.109375q-0.75 0.09375 -1.375 0.40625q-0.625 0.296875 -1.046875 0.828125q-0.40625 0.515625 -0.40625 1.390625q0 1.59375 1.015625 2.21875q1.03125 0.625 2.78125 0.625zm-0.25 -14.921875q1.796875 0 3.015625 0.46875q1.234375 0.46875 1.984375 1.3125q0.765625 0.84375 1.078125 2.015625q0.328125 1.171875 0.328125 2.578125l0 10.40625q-0.390625 0.0625 -1.078125 0.171875q-0.6875 0.109375 -1.5625 0.203125q-0.859375 0.09375 -1.875 0.171875q-1.0 0.09375 -1.984375 0.09375q-1.40625 0 -2.59375 -0.296875q-1.1875 -0.28125 -2.046875 -0.90625q-0.859375 -0.625 -1.34375 -1.640625q-0.484375 -1.03125 -0.484375 -2.46875q0 -1.390625 0.5625 -2.375q0.5625 -0.984375 1.515625 -1.59375q0.96875 -0.609375 2.234375 -0.890625q1.28125 -0.296875 2.703125 -0.296875q0.4375 0 0.921875 0.046875q0.484375 0.046875 0.90625 0.125q0.4375 0.078125 0.75 0.140625q0.328125 0.0625 0.453125 0.09375l0 -0.828125q0 -0.734375 -0.15625 -1.453125q-0.15625 -0.71875 -0.578125 -1.28125q-0.421875 -0.5625 -1.140625 -0.890625q-0.71875 -0.34375 -1.859375 -0.34375q-1.484375 0 -2.59375 0.21875q-1.09375 0.203125 -1.640625 0.421875l-0.34375 -2.453125q0.578125 -0.265625 1.921875 -0.5q1.34375 -0.25 2.90625 -0.25zm14.110291 0.421875l6.296875 0l0 2.5l-6.296875 0l0 7.671875q0 1.25 0.1875 2.078125q0.203125 0.8125 0.578125 1.28125q0.390625 0.453125 0.953125 0.65625q0.578125 0.1875 1.359375 0.1875q1.34375 0 2.15625 -0.296875q0.8125 -0.3125 1.140625 -0.453125l0.5625 2.46875q-0.4375 0.234375 -1.5625 0.5625q-1.125 0.34375 -2.5625 0.34375q-1.6875 0 -2.796875 -0.4375q-1.109375 -0.4375 -1.78125 -1.296875q-0.671875 -0.859375 -0.9375 -2.125q-0.265625 -1.265625 -0.265625 -2.9375l0 -14.84375l2.96875 -0.515625l0 5.15625zm9.145294 8.359375q0 -2.21875 0.640625 -3.859375q0.640625 -1.65625 1.703125 -2.734375q1.0625 -1.09375 2.4375 -1.640625q1.375 -0.546875 2.8125 -0.546875q3.359375 0 5.140625 2.109375q1.796875 2.09375 1.796875 6.375q0 0.1875 0 0.5q0 0.296875 -0.03125 0.5625l-11.390625 0q0.1875 2.59375 1.5 3.9375q1.3125 1.34375 4.109375 1.34375q1.5625 0 2.625 -0.265625q1.078125 -0.28125 1.625 -0.546875l0.421875 2.5q-0.546875 0.296875 -1.90625 0.609375q-1.359375 0.328125 -3.09375 0.328125q-2.171875 0 -3.765625 -0.65625q-1.578125 -0.65625 -2.609375 -1.8125q-1.015625 -1.15625 -1.515625 -2.734375q-0.5 -1.59375 -0.5 -3.46875zm11.4375 -1.640625q0.03125 -2.015625 -1.015625 -3.3125q-1.03125 -1.296875 -2.859375 -1.296875q-1.03125 0 -1.8125 0.40625q-0.78125 0.390625 -1.328125 1.03125q-0.546875 0.640625 -0.859375 1.484375q-0.296875 0.828125 -0.390625 1.6875l8.265625 0zm11.263031 7.78125q1.8125 0 2.6875 -0.484375q0.890625 -0.484375 0.890625 -1.53125q0 -1.09375 -0.875 -1.734375q-0.859375 -0.640625 -2.84375 -1.4375q-0.953125 -0.390625 -1.84375 -0.78125q-0.875 -0.40625 -1.515625 -0.9375q-0.640625 -0.546875 -1.03125 -1.3125q-0.375 -0.78125 -0.375 -1.890625q0 -2.21875 1.625 -3.515625q1.640625 -1.296875 4.453125 -1.296875q0.703125 0 1.40625 0.09375q0.71875 0.078125 1.3125 0.1875q0.609375 0.109375 1.078125 0.234375q0.46875 0.125 0.71875 0.234375l-0.546875 2.546875q-0.46875 -0.25 -1.5 -0.515625q-1.015625 -0.28125 -2.46875 -0.28125q-1.234375 0 -2.171875 0.5q-0.921875 0.5 -0.921875 1.546875q0 0.546875 0.203125 0.96875q0.203125 0.40625 0.640625 0.75q0.4375 0.328125 1.078125 0.625q0.640625 0.28125 1.53125 0.609375q1.1875 0.4375 2.109375 0.875q0.9375 0.4375 1.578125 1.015625q0.65625 0.5625 1.015625 1.390625q0.359375 0.8125 0.359375 2.0q0 2.296875 -1.71875 3.484375q-1.71875 1.1875 -4.875 1.1875q-2.21875 0 -3.46875 -0.375q-1.234375 -0.375 -1.6875 -0.5625l0.546875 -2.5625q0.515625 0.203125 1.625 0.59375q1.125 0.375 2.984375 0.375z" fill-rule="nonzero"></path><path fill="#ffe599" d="m275.57742 195.18636l0 0c0 -21.056396 17.06253 -38.12599 38.11023 -38.12599l0 0c10.107483 0 19.800964 4.0168304 26.948029 11.16684c7.1470337 7.150009 11.162231 16.847504 11.162231 26.959152l0 0c0 21.056396 -17.062561 38.125977 -38.11026 38.125977l0 0c-21.047699 0 -38.11023 -17.06958 -38.11023 -38.125977z" fill-rule="nonzero"></path><path stroke="#000000" stroke-width="1.0" stroke-linejoin="round" stroke-linecap="butt" d="m275.57742 195.18636l0 0c0 -21.056396 17.06253 -38.12599 38.11023 -38.12599l0 0c10.107483 0 19.800964 4.0168304 26.948029 11.16684c7.1470337 7.150009 11.162231 16.847504 11.162231 26.959152l0 0c0 21.056396 -17.062561 38.125977 -38.11026 38.125977l0 0c-21.047699 0 -38.11023 -17.06958 -38.11023 -38.125977z" fill-rule="nonzero"></path><path fill="#ffe599" d="m275.57742 44.84777l0 0c0 -21.056402 17.06253 -38.125984 38.11023 -38.125984l0 0c10.107483 0 19.800964 4.0168333 26.948029 11.1668415c7.1470337 7.150009 11.162231 16.847504 11.162231 26.959145l0 0c0 21.056396 -17.062561 38.125984 -38.11026 38.125984l0 0c-21.047699 0 -38.11023 -17.069588 -38.11023 -38.125984z" fill-rule="nonzero"></path><path stroke="#000000" stroke-width="1.0" stroke-linejoin="round" stroke-linecap="butt" d="m275.57742 44.84777l0 0c0 -21.056402 17.06253 -38.125984 38.11023 -38.125984l0 0c10.107483 0 19.800964 4.0168333 26.948029 11.1668415c7.1470337 7.150009 11.162231 16.847504 11.162231 26.959145l0 0c0 21.056396 -17.062561 38.125984 -38.11026 38.125984l0 0c-21.047699 0 -38.11023 -17.069588 -38.11023 -38.125984z" fill-rule="nonzero"></path><path fill="#000000" fill-opacity="0.0" d="m313.68765 82.973755l0 74.078735" fill-rule="nonzero"></path><path stroke="#000000" stroke-width="4.0" stroke-linejoin="round" stroke-linecap="butt" d="m313.68765 82.973755l0 50.078735" fill-rule="evenodd"></path><path fill="#000000" stroke="#000000" stroke-width="4.0" stroke-linecap="butt" d="m307.08075 133.05249l6.606903 18.15239l6.6069336 -18.15239z" fill-rule="evenodd"></path><path fill="#6fa8dc" d="m219.29396 297.40997l0 0c0 -14.368378 11.647888 -26.016266 26.016266 -26.016266l135.52654 0c6.899933 0 13.517273 2.7409973 18.39627 7.619995c4.878998 4.878998 7.619995 11.496338 7.619995 18.39627l0 104.06195c0 14.368378 -11.647888 26.016266 -26.016266 26.016266l-135.52654 0c-14.368378 0 -26.016266 -11.647888 -26.016266 -26.016266z" fill-rule="nonzero"></path><path stroke="#000000" stroke-width="1.0" stroke-linejoin="round" stroke-linecap="butt" d="m219.29396 297.40997l0 0c0 -14.368378 11.647888 -26.016266 26.016266 -26.016266l135.52654 0c6.899933 0 13.517273 2.7409973 18.39627 7.619995c4.878998 4.878998 7.619995 11.496338 7.619995 18.39627l0 104.06195c0 14.368378 -11.647888 26.016266 -26.016266 26.016266l-135.52654 0c-14.368378 0 -26.016266 -11.647888 -26.016266 -26.016266z" fill-rule="nonzero"></path><path fill="#000000" fill-opacity="0.0" d="m318.12894 377.8819l105.00787 0l0 49.606293l-105.00787 0z" fill-rule="nonzero"></path><path fill="#000000" d="m341.2383 409.32065q0 -2.921875 -1.4375 -4.484375q-1.4375 -1.578125 -3.84375 -1.578125q-1.34375 0 -2.09375 0.109375q-0.75 0.09375 -1.203125 0.21875l0 10.5q0.546875 0.4375 1.5625 0.859375q1.03125 0.421875 2.25 0.421875q1.28125 0 2.1875 -0.46875q0.921875 -0.46875 1.484375 -1.28125q0.578125 -0.8125 0.828125 -1.921875q0.265625 -1.109375 0.265625 -2.375zm3.109375 0q0 1.875 -0.5 3.484375q-0.5 1.59375 -1.46875 2.75q-0.953125 1.15625 -2.34375 1.796875q-1.390625 0.640625 -3.171875 0.640625q-1.453125 0 -2.5625 -0.390625q-1.09375 -0.390625 -1.640625 -0.734375l0 6.65625l-2.96875 0l0 -22.046875q1.046875 -0.265625 2.625 -0.5625q1.59375 -0.296875 3.671875 -0.296875q1.921875 0 3.453125 0.609375q1.546875 0.59375 2.625 1.71875q1.09375 1.125 1.6875 2.75q0.59375 1.609375 0.59375 3.625zm18.879303 -0.03125q0 1.96875 -0.578125 3.578125q-0.578125 1.59375 -1.625 2.75q-1.03125 1.15625 -2.46875 1.78125q-1.4375 0.625 -3.140625 0.625q-1.6875 0 -3.140625 -0.625q-1.4375 -0.625 -2.484375 -1.78125q-1.03125 -1.15625 -1.609375 -2.75q-0.578125 -1.609375 -0.578125 -3.578125q0 -1.953125 0.578125 -3.5625q0.578125 -1.625 1.609375 -2.78125q1.046875 -1.15625 2.484375 -1.78125q1.453125 -0.625 3.140625 -0.625q1.703125 0 3.140625 0.625q1.4375 0.625 2.46875 1.78125q1.046875 1.15625 1.625 2.78125q0.578125 1.609375 0.578125 3.5625zm-3.109375 0q0 -2.828125 -1.265625 -4.46875q-1.265625 -1.65625 -3.4375 -1.65625q-2.171875 0 -3.4375 1.65625q-1.265625 1.640625 -1.265625 4.46875q0 2.8125 1.265625 4.46875q1.265625 1.640625 3.4375 1.640625q2.171875 0 3.4375 -1.640625q1.265625 -1.65625 1.265625 -4.46875zm12.286285 8.625q-2.75 -0.0625 -3.90625 -1.171875q-1.140625 -1.125 -1.140625 -3.5l0 -19.953125l2.96875 -0.515625l0 20.0q0 0.734375 0.125 1.21875q0.140625 0.46875 0.421875 0.765625q0.28125 0.28125 0.765625 0.4375q0.484375 0.140625 1.1875 0.234375l-0.421875 2.484375zm8.736023 0q-2.75 -0.0625 -3.90625 -1.171875q-1.140625 -1.125 -1.140625 -3.5l0 -19.953125l2.96875 -0.515625l0 20.0q0 0.734375 0.125 1.21875q0.140625 0.46875 0.421875 0.765625q0.28125 0.28125 0.765625 0.4375q0.484375 0.140625 1.1875 0.234375l-0.421875 2.484375zm7.626648 -2.453125q1.8125 0 2.6875 -0.484375q0.890625 -0.484375 0.890625 -1.53125q0 -1.09375 -0.875 -1.734375q-0.859375 -0.640625 -2.84375 -1.4375q-0.953125 -0.390625 -1.84375 -0.78125q-0.875 -0.40625 -1.515625 -0.9375q-0.640625 -0.546875 -1.03125 -1.3125q-0.375 -0.78125 -0.375 -1.890625q0 -2.21875 1.625 -3.515625q1.640625 -1.296875 4.453125 -1.296875q0.703125 0 1.40625 0.09375q0.71875 0.078125 1.3125 0.1875q0.609375 0.109375 1.078125 0.234375q0.46875 0.125 0.71875 0.234375l-0.546875 2.546875q-0.46875 -0.25 -1.5 -0.515625q-1.015625 -0.28125 -2.46875 -0.28125q-1.234375 0 -2.171875 0.5q-0.921875 0.5 -0.921875 1.546875q0 0.546875 0.203125 0.96875q0.203125 0.40625 0.640625 0.75q0.4375 0.328125 1.078125 0.625q0.640625 0.28125 1.53125 0.609375q1.1875 0.4375 2.109375 0.875q0.9375 0.4375 1.578125 1.015625q0.65625 0.5625 1.015625 1.390625q0.359375 0.8125 0.359375 2.0q0 2.296875 -1.71875 3.484375q-1.71875 1.1875 -4.875 1.1875q-2.21875 0 -3.46875 -0.375q-1.234375 -0.375 -1.6875 -0.5625l0.546875 -2.5625q0.515625 0.203125 1.625 0.59375q1.125 0.375 2.984375 0.375z" fill-rule="nonzero"></path><path fill="#000000" fill-opacity="0.0" d="m313.68765 233.31233l-0.8188782 76.34645" fill-rule="nonzero"></path><path stroke="#000000" stroke-width="4.0" stroke-linejoin="round" stroke-linecap="butt" d="m313.68765 233.31233l-0.5614929 52.347824" fill-rule="evenodd"></path><path fill="#000000" stroke="#000000" stroke-width="4.0" stroke-linecap="butt" d="m306.51962 285.58932l6.411865 18.222198l6.801239 -18.080475z" fill-rule="evenodd"></path><path fill="#ffe599" d="m274.74277 347.7848l0 0c0 -21.056427 17.062561 -38.126007 38.11026 -38.126007l0 0c10.107452 0 19.800934 4.0168457 26.947998 11.16684c7.147064 7.1500244 11.162231 16.847504 11.162231 26.959167l0 0c0 21.056396 -17.06253 38.125977 -38.11023 38.125977l0 0c-21.047699 0 -38.11026 -17.06958 -38.11026 -38.125977z" fill-rule="nonzero"></path><path stroke="#000000" stroke-width="1.0" stroke-linejoin="round" stroke-linecap="butt" d="m274.74277 347.7848l0 0c0 -21.056427 17.062561 -38.126007 38.11026 -38.126007l0 0c10.107452 0 19.800934 4.0168457 26.947998 11.16684c7.147064 7.1500244 11.162231 16.847504 11.162231 26.959167l0 0c0 21.056396 -17.06253 38.125977 -38.11023 38.125977l0 0c-21.047699 0 -38.11026 -17.06958 -38.11026 -38.125977z" fill-rule="nonzero"></path><path fill="#000000" fill-opacity="0.0" d="m274.49835 322.90585l87.1181 0l0 43.55905l-87.1181 0z" fill-rule="nonzero"></path><path fill="#000000" d="m288.54523 354.94583l-4.734375 -12.453125l2.21875 0l2.671875 7.453125q0.4375 1.21875 0.796875 2.515625q0.28125 -0.984375 0.78125 -2.375l2.765625 -7.59375l2.171875 0l-4.703125 12.453125l-1.96875 0zm7.75 -6.21875q0 -3.46875 1.921875 -5.125q1.609375 -1.390625 3.921875 -1.390625q2.5625 0 4.1875 1.6875q1.625 1.6875 1.625 4.640625q0 2.40625 -0.71875 3.78125q-0.71875 1.375 -2.09375 2.140625q-1.375 0.765625 -3.0 0.765625q-2.625 0 -4.234375 -1.671875q-1.609375 -1.6875 -1.609375 -4.828125zm2.171875 0q0 2.390625 1.03125 3.578125q1.046875 1.1875 2.640625 1.1875q1.5625 0 2.609375 -1.1875q1.046875 -1.203125 1.046875 -3.65625q0 -2.3125 -1.0625 -3.5q-1.046875 -1.1875 -2.59375 -1.1875q-1.59375 0 -2.640625 1.1875q-1.03125 1.1875 -1.03125 3.578125zm16.566406 4.328125l0.3125 1.859375q-0.890625 0.203125 -1.59375 0.203125q-1.15625 0 -1.796875 -0.359375q-0.625 -0.375 -0.890625 -0.96875q-0.25 -0.59375 -0.25 -2.484375l0 -7.171875l-1.546875 0l0 -1.640625l1.546875 0l0 -3.078125l2.09375 -1.265625l0 4.34375l2.125 0l0 1.640625l-2.125 0l0 7.28125q0 0.90625 0.109375 1.171875q0.125 0.25 0.375 0.40625q0.25 0.140625 0.71875 0.140625q0.34375 0 0.921875 -0.078125zm10.589844 -2.125l2.171875 0.28125q-0.515625 1.90625 -1.90625 2.96875q-1.390625 1.046875 -3.5625 1.046875q-2.734375 0 -4.34375 -1.671875q-1.59375 -1.6875 -1.59375 -4.734375q0 -3.140625 1.609375 -4.875q1.625 -1.734375 4.203125 -1.734375q2.5 0 4.078125 1.703125q1.59375 1.703125 1.59375 4.78125q0 0.1875 -0.015625 0.5625l-9.28125 0q0.109375 2.046875 1.15625 3.140625q1.046875 1.09375 2.609375 1.09375q1.15625 0 1.96875 -0.609375q0.828125 -0.609375 1.3125 -1.953125zm-6.9375 -3.40625l6.953125 0q-0.140625 -1.5625 -0.796875 -2.359375q-1.0 -1.21875 -2.609375 -1.21875q-1.453125 0 -2.453125 0.984375q-0.984375 0.96875 -1.09375 2.59375zm10.910156 3.703125l2.09375 -0.328125q0.171875 1.25 0.96875 1.921875q0.8125 0.671875 2.25 0.671875q1.453125 0 2.15625 -0.59375q0.703125 -0.59375 0.703125 -1.390625q0 -0.71875 -0.625 -1.125q-0.421875 -0.28125 -2.15625 -0.71875q-2.3125 -0.578125 -3.21875 -1.0q-0.890625 -0.4375 -1.359375 -1.1875q-0.453125 -0.765625 -0.453125 -1.671875q0 -0.828125 0.375 -1.53125q0.390625 -0.71875 1.046875 -1.1875q0.484375 -0.359375 1.328125 -0.609375q0.859375 -0.265625 1.828125 -0.265625q1.46875 0 2.578125 0.421875q1.109375 0.421875 1.625 1.15625q0.53125 0.71875 0.734375 1.921875l-2.0625 0.28125q-0.140625 -0.96875 -0.8125 -1.5q-0.671875 -0.546875 -1.90625 -0.546875q-1.453125 0 -2.078125 0.484375q-0.625 0.484375 -0.625 1.125q0 0.40625 0.265625 0.734375q0.25 0.34375 0.8125 0.5625q0.3125 0.125 1.859375 0.546875q2.234375 0.59375 3.109375 0.984375q0.890625 0.375 1.390625 1.109375q0.515625 0.71875 0.515625 1.796875q0 1.046875 -0.625 1.984375q-0.609375 0.9375 -1.765625 1.453125q-1.15625 0.5 -2.625 0.5q-2.421875 0 -3.703125 -1.0q-1.265625 -1.015625 -1.625 -3.0z" fill-rule="nonzero"></path><path fill="#000000" fill-opacity="0.0" d="m-5.6745405 120.13386l150.04724 0l0 60.503944l-150.04724 0z" fill-rule="nonzero"></path><path fill="#000000" d="m8.6848345 147.05386l-5.28125 -13.59375l1.9531252 0l3.53125 9.875q0.4375 1.1875 0.71875 2.21875q0.3125 -1.109375 0.734375 -2.21875l3.671875 -9.875l1.84375 0l-5.328125 13.59375l-1.84375 0zm7.709197 -4.921875q0 -2.734375 1.53125 -4.0625q1.265625 -1.09375 3.09375 -1.09375q2.03125 0 3.3125 1.34375q1.296875 1.328125 1.296875 3.671875q0 1.90625 -0.578125 3.0q-0.5625 1.078125 -1.65625 1.6875q-1.078125 0.59375 -2.375 0.59375q-2.0625 0 -3.34375 -1.328125q-1.28125 -1.328125 -1.28125 -3.8125zm1.71875 0q0 1.890625 0.828125 2.828125q0.828125 0.9375 2.078125 0.9375q1.25 0 2.0625 -0.9375q0.828125 -0.953125 0.828125 -2.890625q0 -1.828125 -0.828125 -2.765625q-0.828125 -0.9375 -2.0625 -0.9375q-1.25 0 -2.078125 0.9375q-0.828125 0.9375 -0.828125 2.828125zm12.938217 3.421875l0.234375 1.484375q-0.703125 0.140625 -1.265625 0.140625q-0.90625 0 -1.40625 -0.28125q-0.5 -0.296875 -0.703125 -0.75q-0.203125 -0.46875 -0.203125 -1.984375l0 -5.65625l-1.234375 0l0 -1.3125l1.234375 0l0 -2.4375l1.65625 -1.0l0 3.4375l1.6875 0l0 1.3125l-1.6875 0l0 5.75q0 0.71875 0.078125 0.921875q0.09375 0.203125 0.296875 0.328125q0.203125 0.125 0.578125 0.125q0.265625 0 0.734375 -0.078125zm1.5426788 -10.1875l0 -1.90625l1.671875 0l0 1.90625l-1.671875 0zm0 11.6875l0 -9.859375l1.671875 0l0 9.859375l-1.671875 0zm4.129196 0l0 -9.859375l1.5 0l0 1.40625q1.09375 -1.625 3.140625 -1.625q0.890625 0 1.640625 0.328125q0.75 0.3125 1.109375 0.84375q0.375 0.515625 0.53125 1.21875q0.09375 0.46875 0.09375 1.625l0 6.0625l-1.671875 0l0 -6.0q0 -1.015625 -0.203125 -1.515625q-0.1875 -0.515625 -0.6875 -0.8125q-0.5 -0.296875 -1.171875 -0.296875q-1.0625 0 -1.84375 0.671875q-0.765625 0.671875 -0.765625 2.578125l0 5.375l-1.671875 0zm10.078842 0.8125l1.609375 0.25q0.109375 0.75 0.578125 1.09375q0.609375 0.453125 1.6875 0.453125q1.171875 0 1.796875 -0.46875q0.625 -0.453125 0.859375 -1.28125q0.125 -0.515625 0.109375 -2.15625q-1.09375 1.296875 -2.71875 1.296875q-2.03125 0 -3.15625 -1.46875q-1.109375 -1.46875 -1.109375 -3.515625q0 -1.40625 0.515625 -2.59375q0.515625 -1.203125 1.484375 -1.84375q0.96875 -0.65625 2.265625 -0.65625q1.75 0 2.875 1.40625l0 -1.1875l1.546875 0l0 8.515625q0 2.3125 -0.46875 3.265625q-0.46875 0.96875 -1.484375 1.515625q-1.015625 0.5625 -2.5 0.5625q-1.765625 0 -2.859375 -0.796875q-1.078125 -0.796875 -1.03125 -2.390625zm1.375 -5.921875q0 1.953125 0.765625 2.84375q0.78125 0.890625 1.9375 0.890625q1.140625 0 1.921875 -0.890625q0.78125 -0.890625 0.78125 -2.78125q0 -1.8125 -0.8125 -2.71875q-0.796875 -0.921875 -1.921875 -0.921875q-1.109375 0 -1.890625 0.90625q-0.78125 0.890625 -0.78125 2.671875zm14.496521 -6.578125l0 -1.90625l1.6718788 0l0 1.90625l-1.6718788 0zm0 11.6875l0 -9.859375l1.6718788 0l0 9.859375l-1.6718788 0zm4.1292 0l0 -9.859375l1.5 0l0 1.40625q1.09375 -1.625 3.140625 -1.625q0.890625 0 1.640625 0.328125q0.75 0.3125 1.109375 0.84375q0.375 0.515625 0.53125 1.21875q0.09375 0.46875 0.09375 1.625l0 6.0625l-1.671875 0l0 -6.0q0 -1.015625 -0.203125 -1.515625q-0.1875 -0.515625 -0.6875 -0.8125q-0.5 -0.296875 -1.171875 -0.296875q-1.0625 0 -1.84375 0.671875q-0.765625 0.671875 -0.765625 2.578125l0 5.375l-1.671875 0zm14.031967 -1.5l0.234375 1.484375q-0.703125 0.140625 -1.265625 0.140625q-0.90625 0 -1.40625 -0.28125q-0.5 -0.296875 -0.703125 -0.75q-0.203125 -0.46875 -0.203125 -1.984375l0 -5.65625l-1.234375 0l0 -1.3125l1.234375 0l0 -2.4375l1.65625 -1.0l0 3.4375l1.6875 0l0 1.3125l-1.6875 0l0 5.75q0 0.71875 0.078125 0.921875q0.09375 0.203125 0.296875 0.328125q0.203125 0.125 0.578125 0.125q0.265625 0 0.734375 -0.078125zm8.277054 -1.671875l1.71875 0.21875q-0.40625 1.5 -1.515625 2.34375q-1.09375 0.828125 -2.8125 0.828125q-2.15625 0 -3.421875 -1.328125q-1.265625 -1.328125 -1.265625 -3.734375q0 -2.484375 1.265625 -3.859375q1.28125 -1.375 3.328125 -1.375q1.984375 0 3.234375 1.34375q1.25 1.34375 1.25 3.796875q0 0.140625 -0.015625 0.4375l-7.34375 0q0.09375 1.625 0.921875 2.484375q0.828125 0.859375 2.0625 0.859375q0.90625 0 1.546875 -0.46875q0.65625 -0.484375 1.046875 -1.546875zm-5.484375 -2.703125l5.5 0q-0.109375 -1.234375 -0.625 -1.859375q-0.796875 -0.96875 -2.078125 -0.96875q-1.140625 0 -1.9375 0.78125q-0.78125 0.765625 -0.859375 2.046875zm9.110092 5.875l0 -9.859375l1.5 0l0 1.40625q1.09375 -1.625 3.140625 -1.625q0.890625 0 1.640625 0.328125q0.75 0.3125 1.109375 0.84375q0.375 0.515625 0.53125 1.21875q0.09375 0.46875 0.09375 1.625l0 6.0625l-1.671875 0l0 -6.0q0 -1.015625 -0.203125 -1.515625q-0.1875 -0.515625 -0.6875 -0.8125q-0.5 -0.296875 -1.171875 -0.296875q-1.0625 0 -1.84375 0.671875q-0.765625 0.671875 -0.765625 2.578125l0 5.375l-1.671875 0zm14.031967 -1.5l0.234375 1.484375q-0.703125 0.140625 -1.265625 0.140625q-0.90625 0 -1.40625 -0.28125q-0.5 -0.296875 -0.703125 -0.75q-0.203125 -0.46875 -0.203125 -1.984375l0 -5.65625l-1.234375 0l0 -1.3125l1.234375 0l0 -2.4375l1.65625 -1.0l0 3.4375l1.6875 0l0 1.3125l-1.6875 0l0 5.75q0 0.71875 0.078125 0.921875q0.09375 0.203125 0.296875 0.328125q0.203125 0.125 0.578125 0.125q0.265625 0 0.734375 -0.078125zm1.5426788 -10.1875l0 -1.90625l1.671875 0l0 1.90625l-1.671875 0zm0 11.6875l0 -9.859375l1.671875 0l0 9.859375l-1.671875 0zm3.5041962 -4.921875q0 -2.734375 1.53125 -4.0625q1.265625 -1.09375 3.09375 -1.09375q2.03125 0 3.3125 1.34375q1.296875 1.328125 1.296875 3.671875q0 1.90625 -0.578125 3.0q-0.5625 1.078125 -1.65625 1.6875q-1.078125 0.59375 -2.375 0.59375q-2.0625 0 -3.34375 -1.328125q-1.28125 -1.328125 -1.28125 -3.8125zm1.71875 0q0 1.890625 0.828125 2.828125q0.828125 0.9375 2.078125 0.9375q1.25 0 2.0625 -0.9375q0.828125 -0.953125 0.828125 -2.890625q0 -1.828125 -0.828125 -2.765625q-0.828125 -0.9375 -2.0625 -0.9375q-1.25 0 -2.078125 0.9375q-0.828125 0.9375 -0.828125 2.828125zm9.281967 4.921875l0 -9.859375l1.5 0l0 1.40625q1.09375 -1.625 3.140625 -1.625q0.8906174 0 1.6406174 0.328125q0.75 0.3125 1.109375 0.84375q0.375 0.515625 0.53125 1.21875q0.09375 0.46875 0.09375 1.625l0 6.0625l-1.671875 0l0 -6.0q0 -1.015625 -0.203125 -1.515625q-0.1875 -0.515625 -0.6875 -0.8125q-0.49999237 -0.296875 -1.1718674 -0.296875q-1.0625 0 -1.84375 0.671875q-0.765625 0.671875 -0.765625 2.578125l0 5.375l-1.671875 0z" fill-rule="nonzero"></path><path fill="#000000" d="m6.1223345 169.05386l-1.546875 0l0 -13.59375l1.65625 0l0 4.84375q1.0625 -1.328125 2.703125 -1.328125q0.90625 0 1.71875 0.375q0.8125 0.359375 1.328125 1.03125q0.53125 0.65625 0.828125 1.59375q0.296875 0.9375 0.296875 2.0q0 2.53125 -1.25 3.921875q-1.25 1.375 -3.0 1.375q-1.75 0 -2.734375 -1.453125l0 1.234375zm-0.015625 -5.0q0 1.765625 0.46875 2.5625q0.796875 1.28125 2.140625 1.28125q1.09375 0 1.890625 -0.9375q0.796875 -0.953125 0.796875 -2.84375q0 -1.921875 -0.765625 -2.84375q-0.765625 -0.921875 -1.84375 -0.921875q-1.09375 0 -1.890625 0.953125q-0.796875 0.953125 -0.796875 2.75zm8.766342 8.796875l-0.171875 -1.5625q0.546875 0.140625 0.953125 0.140625q0.54687405 0 0.87499905 -0.1875q0.34375 -0.1875 0.5625 -0.515625q0.15625 -0.25 0.5 -1.25q0.046875 -0.140625 0.15625 -0.40625l-3.734374 -9.875l1.796875 0l2.046874 5.71875q0.40625 1.078125 0.71875 2.28125q0.28125 -1.15625 0.6875 -2.25l2.09375 -5.75l1.671875 0l-3.75 10.03125q-0.59375 1.625 -0.9375 2.234375q-0.4375 0.828125 -1.015625 1.203125q-0.578125 0.390625 -1.374999 0.390625q-0.484375 0 -1.078125 -0.203125zm13.917678 -6.734375l1.65625 -0.265625q0.140625 1.0 0.765625 1.53125q0.640625 0.515625 1.78125 0.515625q1.15625 0 1.703125 -0.46875q0.5625 -0.46875 0.5625 -1.09375q0 -0.5625 -0.484375 -0.890625q-0.34375 -0.21875 -1.703125 -0.5625q-1.84375 -0.46875 -2.5625 -0.796875q-0.703125 -0.34375 -1.078125 -0.9375q-0.359375 -0.609375 -0.359375 -1.328125q0 -0.65625 0.296875 -1.21875q0.3125 -0.5625 0.828125 -0.9375q0.390625 -0.28125 1.0625 -0.484375q0.671875 -0.203125 1.4375 -0.203125q1.171875 0 2.046875 0.34375q0.875 0.328125 1.28125 0.90625q0.421875 0.5625 0.578125 1.515625l-1.625 0.21875q-0.109375 -0.75 -0.65625 -1.171875q-0.53125 -0.4375 -1.5 -0.4375q-1.15625 0 -1.640625 0.390625q-0.484375 0.375 -0.484375 0.875q0 0.328125 0.203125 0.59375q0.203125 0.265625 0.640625 0.4375q0.25 0.09375 1.46875 0.4375q1.765625 0.46875 2.46875 0.765625q0.703125 0.296875 1.09375 0.875q0.40625 0.578125 0.40625 1.4375q0 0.828125 -0.484375 1.578125q-0.484375 0.734375 -1.40625 1.140625q-0.921875 0.390625 -2.078125 0.390625q-1.921875 0 -2.9375 -0.796875q-1.0 -0.796875 -1.28125 -2.359375zm13.65625 1.4375l0.234375 1.484375q-0.703125 0.140625 -1.265625 0.140625q-0.90625 0 -1.40625 -0.28125q-0.5 -0.296875 -0.703125 -0.75q-0.203125 -0.46875 -0.203125 -1.984375l0 -5.65625l-1.234375 0l0 -1.3125l1.234375 0l0 -2.4375l1.65625 -1.0l0 3.4375l1.6875 0l0 1.3125l-1.6875 0l0 5.75q0 0.71875 0.078125 0.921875q0.09375 0.203125 0.296875 0.328125q0.203125 0.125 0.578125 0.125q0.265625 0 0.734375 -0.078125zm7.964554 0.28125q-0.9375 0.796875 -1.796875 1.125q-0.859375 0.3125 -1.84375 0.3125q-1.609375 0 -2.484375 -0.78125q-0.875 -0.796875 -0.875 -2.03125q0 -0.734375 0.328125 -1.328125q0.328125 -0.59375 0.859375 -0.953125q0.53125 -0.359375 1.203125 -0.546875q0.5 -0.140625 1.484375 -0.25q2.03125 -0.25 2.984375 -0.578125q0 -0.34375 0 -0.4375q0 -1.015625 -0.46875 -1.4375q-0.640625 -0.5625 -1.90625 -0.5625q-1.171875 0 -1.734375 0.40625q-0.5625 0.40625 -0.828125 1.46875l-1.640625 -0.234375q0.234375 -1.046875 0.734375 -1.6875q0.515625 -0.640625 1.46875 -0.984375q0.96875 -0.359375 2.25 -0.359375q1.265625 0 2.046875 0.296875q0.78125 0.296875 1.15625 0.75q0.375 0.453125 0.515625 1.140625q0.09375 0.421875 0.09375 1.53125l0 2.234375q0 2.328125 0.09375 2.953125q0.109375 0.609375 0.4375 1.171875l-1.75 0q-0.265625 -0.515625 -0.328125 -1.21875zm-0.140625 -3.71875q-0.90625 0.359375 -2.734375 0.625q-1.03125 0.140625 -1.453125 0.328125q-0.421875 0.1875 -0.65625 0.546875q-0.234375 0.359375 -0.234375 0.796875q0 0.671875 0.5 1.125q0.515625 0.4375 1.484375 0.4375q0.96875 0 1.71875 -0.421875q0.75 -0.4375 1.109375 -1.15625q0.265625 -0.578125 0.265625 -1.671875l0 -0.609375zm7.735092 3.4375l0.234375 1.484375q-0.703125 0.140625 -1.265625 0.140625q-0.90625 0 -1.40625 -0.28125q-0.5 -0.296875 -0.703125 -0.75q-0.203125 -0.46875 -0.203125 -1.984375l0 -5.65625l-1.234375 0l0 -1.3125l1.234375 0l0 -2.4375l1.65625 -1.0l0 3.4375l1.6875 0l0 1.3125l-1.6875 0l0 5.75q0 0.71875 0.078125 0.921875q0.09375 0.203125 0.296875 0.328125q0.203125 0.125 0.578125 0.125q0.265625 0 0.734375 -0.078125zm8.277058 -1.671875l1.71875 0.21875q-0.40625 1.5 -1.515625 2.34375q-1.09375 0.828125 -2.8125038 0.828125q-2.15625 0 -3.421875 -1.328125q-1.265625 -1.328125 -1.265625 -3.734375q0 -2.484375 1.265625 -3.859375q1.28125 -1.375 3.328125 -1.375q1.9843788 0 3.2343788 1.34375q1.25 1.34375 1.25 3.796875q0 0.140625 -0.015625 0.4375l-7.343754 0q0.09375 1.625 0.921875 2.484375q0.828125 0.859375 2.0625 0.859375q0.9062538 0 1.5468788 -0.46875q0.65625 -0.484375 1.046875 -1.546875zm-5.484379 -2.703125l5.500004 0q-0.109375 -1.234375 -0.625 -1.859375q-0.796875 -0.96875 -2.0781288 -0.96875q-1.140625 0 -1.9375 0.78125q-0.78125 0.765625 -0.859375 2.046875z" fill-rule="nonzero"></path><path fill="#000000" fill-opacity="0.0" d="m258.01575 193.95013l-157.32283 -22.992126" fill-rule="nonzero"></path><path stroke="#000000" stroke-width="1.0" stroke-linejoin="round" stroke-linecap="butt" d="m258.01575 193.95013l-157.32283 -22.992126" fill-rule="nonzero"></path><path fill="#000000" fill-opacity="0.0" d="m475.00787 44.010498l140.37793 0l0 87.40158l-140.37793 0z" fill-rule="nonzero"></path><path fill="#000000" d="m485.461 70.9305l0 -13.59375l1.84375 0l7.140625 10.671875l0 -10.671875l1.71875 0l0 13.59375l-1.84375 0l-7.140625 -10.6875l0 10.6875l-1.71875 0zm19.707336 -1.21875q-0.9375 0.796875 -1.796875 1.125q-0.859375 0.3125 -1.84375 0.3125q-1.609375 0 -2.484375 -0.78125q-0.875 -0.796875 -0.875 -2.03125q0 -0.734375 0.328125 -1.328125q0.328125 -0.59375 0.859375 -0.953125q0.53125 -0.359375 1.203125 -0.546875q0.5 -0.140625 1.484375 -0.25q2.03125 -0.25 2.984375 -0.578125q0 -0.34375 0 -0.4375q0 -1.015625 -0.46875 -1.4375q-0.640625 -0.5625 -1.90625 -0.5625q-1.171875 0 -1.734375 0.40625q-0.5625 0.40625 -0.828125 1.46875l-1.640625 -0.234375q0.234375 -1.046875 0.734375 -1.6875q0.515625 -0.640625 1.46875 -0.984375q0.96875 -0.359375 2.25 -0.359375q1.265625 0 2.046875 0.296875q0.78125 0.296875 1.15625 0.75q0.375 0.453125 0.515625 1.140625q0.09375 0.421875 0.09375 1.53125l0 2.234375q0 2.328125 0.09375 2.953125q0.109375 0.609375 0.4375 1.171875l-1.75 0q-0.265625 -0.515625 -0.328125 -1.21875zm-0.140625 -3.71875q-0.90625 0.359375 -2.734375 0.625q-1.03125 0.140625 -1.453125 0.328125q-0.421875 0.1875 -0.65625 0.546875q-0.234375 0.359375 -0.234375 0.796875q0 0.671875 0.5 1.125q0.515625 0.4375 1.484375 0.4375q0.96875 0 1.71875 -0.421875q0.75 -0.4375 1.109375 -1.15625q0.265625 -0.578125 0.265625 -1.671875l0 -0.609375zm7.7351074 3.4375l0.234375 1.484375q-0.703125 0.140625 -1.2656555 0.140625q-0.90625 0 -1.40625 -0.28125q-0.5 -0.296875 -0.703125 -0.75q-0.203125 -0.46875 -0.203125 -1.984375l0 -5.65625l-1.234375 0l0 -1.3125l1.234375 0l0 -2.4375l1.65625 -1.0l0 3.4375l1.6875305 0l0 1.3125l-1.6875305 0l0 5.75q0 0.71875 0.078125 0.921875q0.09375 0.203125 0.296875 0.328125q0.203125 0.125 0.5781555 0.125q0.265625 0 0.734375 -0.078125zm1.5426636 -10.1875l0 -1.90625l1.671875 0l0 1.90625l-1.671875 0zm0 11.6875l0 -9.859375l1.671875 0l0 9.859375l-1.671875 0zm3.5042114 -4.921875q0 -2.734375 1.53125 -4.0625q1.265625 -1.09375 3.09375 -1.09375q2.03125 0 3.3125 1.34375q1.296875 1.328125 1.296875 3.671875q0 1.90625 -0.578125 3.0q-0.5625 1.078125 -1.65625 1.6875q-1.078125 0.59375 -2.375 0.59375q-2.0625 0 -3.34375 -1.328125q-1.28125 -1.328125 -1.28125 -3.8125zm1.71875 0q0 1.890625 0.828125 2.828125q0.828125 0.9375 2.078125 0.9375q1.25 0 2.0625 -0.9375q0.828125 -0.953125 0.828125 -2.890625q0 -1.828125 -0.828125 -2.765625q-0.828125 -0.9375 -2.0625 -0.9375q-1.25 0 -2.078125 0.9375q-0.828125 0.9375 -0.828125 2.828125zm9.281921 4.921875l0 -9.859375l1.5 0l0 1.40625q1.09375 -1.625 3.140625 -1.625q0.890625 0 1.640625 0.328125q0.75 0.3125 1.109375 0.84375q0.375 0.515625 0.53125 1.21875q0.09375 0.46875 0.09375 1.625l0 6.0625l-1.671875 0l0 -6.0q0 -1.015625 -0.203125 -1.515625q-0.1875 -0.515625 -0.6875 -0.8125q-0.5 -0.296875 -1.171875 -0.296875q-1.0625 0 -1.84375 0.671875q-0.765625 0.671875 -0.765625 2.578125l0 5.375l-1.671875 0zm16.813232 -1.21875q-0.9375 0.796875 -1.796875 1.125q-0.859375 0.3125 -1.84375 0.3125q-1.609375 0 -2.484375 -0.78125q-0.875 -0.796875 -0.875 -2.03125q0 -0.734375 0.328125 -1.328125q0.328125 -0.59375 0.859375 -0.953125q0.53125 -0.359375 1.203125 -0.546875q0.5 -0.140625 1.484375 -0.25q2.03125 -0.25 2.984375 -0.578125q0 -0.34375 0 -0.4375q0 -1.015625 -0.46875 -1.4375q-0.640625 -0.5625 -1.90625 -0.5625q-1.171875 0 -1.734375 0.40625q-0.5625 0.40625 -0.828125 1.46875l-1.640625 -0.234375q0.234375 -1.046875 0.734375 -1.6875q0.515625 -0.640625 1.46875 -0.984375q0.96875 -0.359375 2.25 -0.359375q1.265625 0 2.046875 0.296875q0.78125 0.296875 1.15625 0.75q0.375 0.453125 0.515625 1.140625q0.09375 0.421875 0.09375 1.53125l0 2.234375q0 2.328125 0.09375 2.953125q0.109375 0.609375 0.4375 1.171875l-1.75 0q-0.265625 -0.515625 -0.328125 -1.21875zm-0.140625 -3.71875q-0.90625 0.359375 -2.734375 0.625q-1.03125 0.140625 -1.453125 0.328125q-0.421875 0.1875 -0.65625 0.546875q-0.234375 0.359375 -0.234375 0.796875q0 0.671875 0.5 1.125q0.515625 0.4375 1.484375 0.4375q0.96875 0 1.71875 -0.421875q0.75 -0.4375 1.109375 -1.15625q0.265625 -0.578125 0.265625 -1.671875l0 -0.609375zm4.0476074 4.9375l0 -13.59375l1.671875 0l0 13.59375l-1.671875 0z" fill-rule="nonzero"></path><path fill="#000000" d="m485.25787 96.71175l0 -13.640625l1.53125 0l0 1.28125q0.53125 -0.75 1.203125 -1.125q0.6875 -0.375 1.640625 -0.375q1.265625 0 2.234375 0.65625q0.96875 0.640625 1.453125 1.828125q0.5 1.1875 0.5 2.59375q0 1.515625 -0.546875 2.734375q-0.546875 1.203125 -1.578125 1.84375q-1.03125 0.640625 -2.171875 0.640625q-0.84375 0 -1.515625 -0.34375q-0.65625 -0.359375 -1.078125 -0.890625l0 4.796875l-1.671875 0zm1.515625 -8.65625q0 1.90625 0.765625 2.8125q0.78125 0.90625 1.875 0.90625q1.109375 0 1.890625 -0.9375q0.796875 -0.9375 0.796875 -2.921875q0 -1.875 -0.78125 -2.8125q-0.765625 -0.9375 -1.84375 -0.9375q-1.0625 0 -1.890625 1.0q-0.8125 1.0 -0.8125 2.890625zm8.844482 4.875l0 -9.859375l1.5 0l0 1.5q0.578125 -1.046875 1.0625 -1.375q0.484375 -0.34375 1.078125 -0.34375q0.84375 0 1.71875 0.546875l-0.578125 1.546875q-0.609375 -0.359375 -1.234375 -0.359375q-0.546875 0 -0.984375 0.328125q-0.421875 0.328125 -0.609375 0.90625q-0.28125 0.890625 -0.28125 1.953125l0 5.15625l-1.671875 0zm12.978302 -3.171875l1.71875 0.21875q-0.40625 1.5 -1.515625 2.34375q-1.09375 0.828125 -2.8125 0.828125q-2.15625 0 -3.421875 -1.328125q-1.265625 -1.328125 -1.265625 -3.734375q0 -2.484375 1.265625 -3.859375q1.28125 -1.375 3.328125 -1.375q1.984375 0 3.234375 1.34375q1.25 1.34375 1.25 3.796875q0 0.140625 -0.015625 0.4375l-7.34375 0q0.09375 1.625 0.921875 2.484375q0.828125 0.859375 2.0625 0.859375q0.90625 0 1.546875 -0.46875q0.65625 -0.484375 1.046875 -1.546875zm-5.484375 -2.703125l5.5 0q-0.109375 -1.234375 -0.625 -1.859375q-0.796875 -0.96875 -2.078125 -0.96875q-1.140625 0 -1.9375 0.78125q-0.78125 0.765625 -0.859375 2.046875zm9.516327 5.875l0 -8.546875l-1.484375 0l0 -1.3125l1.484375 0l0 -1.046875q0 -0.984375 0.171875 -1.46875q0.234375 -0.65625 0.84375 -1.046875q0.609375 -0.40625 1.703125 -0.40625q0.703125 0 1.5625 0.15625l-0.25 1.46875q-0.515625 -0.09375 -0.984375 -0.09375q-0.765625 0 -1.078125 0.328125q-0.3125 0.3125 -0.3125 1.203125l0 0.90625l1.921875 0l0 1.3125l-1.921875 0l0 8.546875l-1.65625 0zm11.527039 -3.171875l1.71875 0.21875q-0.40625 1.5 -1.515625 2.34375q-1.09375 0.828125 -2.8125 0.828125q-2.15625 0 -3.421875 -1.328125q-1.265625 -1.328125 -1.265625 -3.734375q0 -2.484375 1.265625 -3.859375q1.28125 -1.375 3.328125 -1.375q1.984375 0 3.234375 1.34375q1.25 1.34375 1.25 3.796875q0 0.140625 -0.015625 0.4375l-7.34375 0q0.09375 1.625 0.921875 2.484375q0.828125 0.859375 2.0625 0.859375q0.90625 0 1.546875 -0.46875q0.65625 -0.484375 1.046875 -1.546875zm-5.484375 -2.703125l5.5 0q-0.109375 -1.234375 -0.625 -1.859375q-0.796875 -0.96875 -2.078125 -0.96875q-1.140625 0 -1.9375 0.78125q-0.78125 0.765625 -0.859375 2.046875zm9.094482 5.875l0 -9.859375l1.5 0l0 1.5q0.578125 -1.046875 1.0625 -1.375q0.484375 -0.34375 1.078125 -0.34375q0.84375 0 1.71875 0.546875l-0.578125 1.546875q-0.609375 -0.359375 -1.234375 -0.359375q-0.546875 0 -0.984375 0.328125q-0.421875 0.328125 -0.609375 0.90625q-0.28125 0.890625 -0.28125 1.953125l0 5.15625l-1.671875 0zm12.9783325 -3.171875l1.71875 0.21875q-0.40625 1.5 -1.515625 2.34375q-1.09375 0.828125 -2.8125 0.828125q-2.15625 0 -3.421875 -1.328125q-1.265625 -1.328125 -1.265625 -3.734375q0 -2.484375 1.265625 -3.859375q1.28125 -1.375 3.328125 -1.375q1.984375 0 3.234375 1.34375q1.25 1.34375 1.25 3.796875q0 0.140625 -0.015625 0.4375l-7.34375 0q0.09375 1.625 0.921875 2.484375q0.828125 0.859375 2.0625 0.859375q0.90625 0 1.546875 -0.46875q0.65625 -0.484375 1.046875 -1.546875zm-5.484375 -2.703125l5.5 0q-0.109375 -1.234375 -0.625 -1.859375q-0.796875 -0.96875 -2.078125 -0.96875q-1.140625 0 -1.9375 0.78125q-0.78125 0.765625 -0.859375 2.046875zm9.110046 5.875l0 -9.859375l1.5 0l0 1.40625q1.09375 -1.625 3.140625 -1.625q0.890625 0 1.640625 0.328125q0.75 0.3125 1.109375 0.84375q0.375 0.515625 0.53125 1.21875q0.09375 0.46875 0.09375 1.625l0 6.0625l-1.671875 0l0 -6.0q0 -1.015625 -0.203125 -1.515625q-0.1875 -0.515625 -0.6875 -0.8125q-0.5 -0.296875 -1.171875 -0.296875q-1.0625 0 -1.84375 0.671875q-0.765625 0.671875 -0.765625 2.578125l0 5.375l-1.671875 0zm16.813232 -3.609375l1.640625 0.21875q-0.265625 1.6875 -1.375 2.65625q-1.109375 0.953125 -2.734375 0.953125q-2.015625 0 -3.25 -1.3125q-1.21875 -1.328125 -1.21875 -3.796875q0 -1.59375 0.515625 -2.78125q0.53125 -1.203125 1.609375 -1.796875q1.09375 -0.609375 2.359375 -0.609375q1.609375 0 2.625 0.8125q1.015625 0.8125 1.3125 2.3125l-1.625 0.25q-0.234375 -1.0 -0.828125 -1.5q-0.59375 -0.5 -1.421875 -0.5q-1.265625 0 -2.0625 0.90625q-0.78125 0.90625 -0.78125 2.859375q0 1.984375 0.765625 2.890625q0.765625 0.890625 1.984375 0.890625q0.984375 0 1.640625 -0.59375q0.65625 -0.609375 0.84375 -1.859375zm9.640625 0.4375l1.71875 0.21875q-0.40625 1.5 -1.515625 2.34375q-1.09375 0.828125 -2.8125 0.828125q-2.15625 0 -3.421875 -1.328125q-1.265625 -1.328125 -1.265625 -3.734375q0 -2.484375 1.265625 -3.859375q1.28125 -1.375 3.328125 -1.375q1.984375 0 3.234375 1.34375q1.25 1.34375 1.25 3.796875q0 0.140625 -0.015625 0.4375l-7.34375 0q0.09375 1.625 0.921875 2.484375q0.828125 0.859375 2.0625 0.859375q0.90625 0 1.546875 -0.46875q0.65625 -0.484375 1.046875 -1.546875zm-5.484375 -2.703125l5.5 0q-0.109375 -1.234375 -0.625 -1.859375q-0.796875 -0.96875 -2.078125 -0.96875q-1.140625 0 -1.9375 0.78125q-0.78125 0.765625 -0.859375 2.046875z" fill-rule="nonzero"></path><path fill="#000000" fill-opacity="0.0" d="m475.00787 87.71129l-111.24408 -22.425201" fill-rule="nonzero"></path><path stroke="#000000" stroke-width="1.0" stroke-linejoin="round" stroke-linecap="butt" d="m475.00787 87.71129l-111.24408 -22.425201" fill-rule="nonzero"></path><path fill="#ffe599" d="m33.03937 293.75067l0 0c0 -21.056427 17.062534 -38.126007 38.110233 -38.126007l0 0c10.107468 0 19.80095 4.0168457 26.948006 11.16684c7.1470566 7.1500244 11.162231 16.847504 11.162231 26.959167l0 0c0 21.056396 -17.06253 38.125977 -38.110237 38.125977l0 0c-21.047699 0 -38.110233 -17.06958 -38.110233 -38.125977z" fill-rule="nonzero"></path><path stroke="#000000" stroke-width="2.0" stroke-linejoin="round" stroke-linecap="butt" stroke-dasharray="8.0,6.0" d="m33.03937 293.75067l0 0c0 -21.056427 17.062534 -38.126007 38.110233 -38.126007l0 0c10.107468 0 19.80095 4.0168457 26.948006 11.16684c7.1470566 7.1500244 11.162231 16.847504 11.162231 26.959167l0 0c0 21.056396 -17.06253 38.125977 -38.110237 38.125977l0 0c-21.047699 0 -38.110233 -17.06958 -38.110233 -38.125977z" fill-rule="nonzero"></path><path fill="#000000" fill-opacity="0.0" d="m38.89731 267.77356l87.11811 0l0 43.55905l-87.11811 0z" fill-rule="nonzero"></path><path fill="#000000" d="m51.42856 299.81357l-1.953125 0l0 -17.1875l2.109375 0l0 6.140625q1.328125 -1.6875 3.40625 -1.6875q1.140625 0 2.171875 0.46875q1.03125 0.46875 1.6875 1.3125q0.65625 0.828125 1.03125 2.015625q0.375 1.171875 0.375 2.53125q0 3.1875 -1.578125 4.9375q-1.578125 1.75 -3.796875 1.75q-2.203125 0 -3.453125 -1.84375l0 1.5625zm-0.03125 -6.3125q0 2.234375 0.609375 3.234375q1.0 1.625 2.703125 1.625q1.375 0 2.375 -1.203125q1.015625 -1.203125 1.015625 -3.578125q0 -2.4375 -0.96875 -3.59375q-0.953125 -1.171875 -2.328125 -1.171875q-1.390625 0 -2.40625 1.203125q-1.0 1.203125 -1.0 3.484375zm11.441406 -8.4375l0 -2.4375l2.109375 0l0 2.4375l-2.109375 0zm0 14.75l0 -12.453125l2.109375 0l0 12.453125l-2.109375 0zm13.441406 -1.53125q-1.171875 0.984375 -2.265625 1.40625q-1.078125 0.40625 -2.3125 0.40625q-2.046875 0 -3.15625 -1.0q-1.09375 -1.0 -1.09375 -2.5625q0 -0.921875 0.40625 -1.671875q0.421875 -0.75 1.09375 -1.203125q0.671875 -0.46875 1.515625 -0.703125q0.625 -0.15625 1.875 -0.3125q2.5625 -0.3125 3.765625 -0.734375q0.015625 -0.421875 0.015625 -0.546875q0 -1.28125 -0.609375 -1.8125q-0.796875 -0.71875 -2.390625 -0.71875q-1.5 0 -2.203125 0.53125q-0.703125 0.515625 -1.046875 1.84375l-2.0625 -0.28125q0.28125 -1.328125 0.921875 -2.140625q0.640625 -0.8125 1.859375 -1.25q1.21875 -0.453125 2.828125 -0.453125q1.59375 0 2.59375 0.375q1.0 0.375 1.46875 0.953125q0.46875 0.5625 0.65625 1.4375q0.09375 0.53125 0.09375 1.9375l0 2.8125q0 2.9375 0.140625 3.71875q0.140625 0.78125 0.53125 1.5l-2.203125 0q-0.328125 -0.65625 -0.421875 -1.53125zm-0.171875 -4.71875q-1.15625 0.46875 -3.453125 0.796875q-1.296875 0.1875 -1.84375 0.421875q-0.53125 0.234375 -0.828125 0.6875q-0.28125 0.453125 -0.28125 1.0q0 0.84375 0.625 1.40625q0.640625 0.5625 1.875 0.5625q1.21875 0 2.171875 -0.53125q0.953125 -0.53125 1.390625 -1.453125q0.34375 -0.71875 0.34375 -2.109375l0 -0.78125zm4.5507812 2.53125l2.09375 -0.328125q0.171875 1.25 0.96875 1.921875q0.8125 0.671875 2.25 0.671875q1.453125 0 2.15625 -0.59375q0.703125 -0.59375 0.703125 -1.390625q0 -0.71875 -0.625 -1.125q-0.421875 -0.28125 -2.15625 -0.71875q-2.3125 -0.578125 -3.21875 -1.0q-0.890625 -0.4375 -1.359375 -1.1875q-0.453125 -0.765625 -0.453125 -1.671875q0 -0.828125 0.375 -1.53125q0.390625 -0.71875 1.046875 -1.1875q0.484375 -0.359375 1.328125 -0.609375q0.859375 -0.265625 1.828125 -0.265625q1.46875 0 2.578125 0.421875q1.109375 0.421875 1.625 1.15625q0.53125 0.71875 0.734375 1.921875l-2.0625 0.28125q-0.140625 -0.96875 -0.8125 -1.5q-0.671875 -0.546875 -1.90625 -0.546875q-1.453125 0 -2.078125 0.484375q-0.625 0.484375 -0.625 1.125q0 0.40625 0.265625 0.734375q0.25 0.34375 0.8125 0.5625q0.3125 0.125 1.859375 0.546875q2.234375 0.59375 3.109375 0.984375q0.890625 0.375 1.390625 1.109375q0.515625 0.71875 0.515625 1.796875q0 1.046875 -0.625 1.984375q-0.609375 0.9375 -1.765625 1.453125q-1.15625 0.5 -2.625 0.5q-2.421875 0 -3.703125 -1.0q-1.265625 -1.015625 -1.625 -3.0z" fill-rule="nonzero"></path><path fill="#000000" fill-opacity="0.0" d="m107.09678 302.9216l167.40158 41.763763" fill-rule="nonzero"></path><path stroke="#000000" stroke-width="2.0" stroke-linejoin="round" stroke-linecap="butt" stroke-dasharray="8.0,6.0" d="m107.09679 302.9216l155.75844 38.85901" fill-rule="evenodd"></path><path fill="#000000" stroke="#000000" stroke-width="2.0" stroke-linecap="butt" d="m262.05557 344.98584l9.6059265 -1.0082092l-8.006622 -5.402252z" fill-rule="evenodd"></path><path fill="#000000" fill-opacity="0.0" d="m284.23386 -9.651969l101.35434 0l0 83.68504l-101.35434 0z" fill-rule="nonzero"></path><path fill="#000000" d="m322.0776 27.600534l5.75 0q-2.1875 6.874998 -4.03125 16.593748q2.1875 12.0625 4.03125 16.59375l-5.59375 0q-1.34375 -3.125 -2.03125 -6.0625q-2.59375 6.8125 -10.84375 6.8125q-6.25 0 -10.0625 -4.6875q-3.8125 -4.6875 -3.8125 -12.71875q0 -8.25 3.828125 -12.765623q3.828125 -4.515625 10.140625 -4.515625q3.90625 0 6.375 1.578125q2.46875 1.578125 4.59375 4.796873q0.21875 -1.09375 1.65625 -5.624998zm-11.6875 3.90625q-4.03125 0 -6.375 3.249998q-2.34375 3.25 -2.34375 9.375q0 5.96875 2.21875 9.375q2.21875 3.40625 6.1875 3.40625q3.875 0 6.46875 -3.359375q2.59375 -3.359375 2.59375 -9.671875q0 -6.125 -2.421875 -9.25q-2.421875 -3.124998 -6.328125 -3.124998z" fill-rule="nonzero"></path><path fill="#000000" fill-opacity="0.0" d="m285.61862 147.8601l101.35434 0l0 83.68504l-101.35434 0z" fill-rule="nonzero"></path><path fill="#000000" d="m297.49362 195.39386q0 -23.6875 14.9375 -23.6875q14.9375 0 14.9375 23.6875q0 23.65625 -14.9375 23.65625q-14.9375 0 -14.9375 -23.65625zm5.8125 -2.28125l18.25 0q-0.3125 -9.78125 -2.8125 -13.28125q-2.5 -3.5 -6.375 -3.5q-8.71875 0 -9.0625 16.78125zm18.25 4.53125l-18.25 0q0.34375 16.78125 9.125 16.78125q8.8125 0 9.125 -16.78125z" fill-rule="nonzero"></path></g></svg>

