<svg id="Camada_1" data-name="Camada 1" xmlns="http://www.w3.org/2000/svg" viewBox="0 0 401.54 123.61"><defs><style>.cls-1{fill:#1d1d1b;}</style></defs><title>Datart Cerebro Preto</title><path class="cls-1" d="M192.74,300.65v-62.5a3.29,3.29,0,0,1,.9-2.35,3,3,0,0,1,2.3-1h26.9q10,0,15.5,2.5t8.25,9.15q2.75,6.65,2.75,19v7.2q0,12.6-2.75,19.4t-8.25,9.3q-5.5,2.5-15.5,2.5h-26.9a3.08,3.08,0,0,1-3.2-3.2Zm12.2-56.5A1.55,1.55,0,0,0,203,246v46.7a1.55,1.55,0,0,0,1.9,1.9h17.6q10.1,0,13.2-4.25t3.1-18.05v-6.5q0-13.5-3.1-17.6t-13.2-4.1Z" transform="translate(-78.29 -223.97)"/><path class="cls-1" d="M263.34,262.65q-3,0-3-3.1v-2.1a3.8,3.8,0,0,1,.85-2.7,6.4,6.4,0,0,1,2.75-1.5,61.65,61.65,0,0,1,17.3-2.2q12.4,0,17.1,5t4.7,19v15.1q0,7.7-4.9,10.9t-17.4,3.2h-2q-10.6,0-15.75-3.9t-5.15-12.8v-1.3q0-7.7,4.7-11.05t14.6-3.35h2.1a76.24,76.24,0,0,1,11.5.9q2.1.3,2.1-1.8,0-6.3-2.65-8.7t-9.65-2.4a47.42,47.42,0,0,0-11,1.35Q263.84,262.65,263.34,262.65Zm29.5,20.5a3.31,3.31,0,0,0-.55-2.2,4,4,0,0,0-2.15-.9,54.36,54.36,0,0,0-10-.7H279q-6.4,0-8.75,1.6t-2.35,5.8v.9q0,4.8,2.45,6.7t8.85,1.9h.9a40.62,40.62,0,0,0,8.8-.7,5.42,5.42,0,0,0,3.15-1.65,6.79,6.79,0,0,0,.75-3.75Z" transform="translate(-78.29 -223.97)"/><path class="cls-1" d="M333.84,304.35h-.6q-9.8,0-14-5.1t-4.15-18.9v-17.9q0-1.8-1.7-1.8h-2.2a3.08,3.08,0,0,1-3.2-3.2v-2.6a3.29,3.29,0,0,1,.9-2.35,3,3,0,0,1,2.3-.95h2.2a1.5,1.5,0,0,0,1.7-1.7V243a3.29,3.29,0,0,1,.9-2.35,3.15,3.15,0,0,1,2.4-1h3.7a3,3,0,0,1,2.3,1,3.29,3.29,0,0,1,.9,2.35v6.8q0,1.7,1.8,1.7h13.4a3,3,0,0,1,2.3.95,3.29,3.29,0,0,1,.9,2.35v2.6a3.08,3.08,0,0,1-3.2,3.2h-13.4a1.59,1.59,0,0,0-1.8,1.8v18.9q0,8.1,1.9,11t6.4,2.9h.4a21.08,21.08,0,0,0,5.5-.7,20.29,20.29,0,0,1,3.1-.7q2.8,0,2.8,3.1v2.5q0,3.1-3.7,4.1A40.29,40.29,0,0,1,333.84,304.35Z" transform="translate(-78.29 -223.97)"/><path class="cls-1" d="M356.44,262.65q-3,0-3-3.1v-2.1a3.8,3.8,0,0,1,.85-2.7,6.4,6.4,0,0,1,2.75-1.5,61.65,61.65,0,0,1,17.3-2.2q12.4,0,17.1,5t4.7,19v15.1q0,7.7-4.9,10.9t-17.4,3.2h-2q-10.6,0-15.75-3.9t-5.15-12.8v-1.3q0-7.7,4.7-11.05t14.6-3.35h2.1a76.23,76.23,0,0,1,11.5.9q2.1.3,2.1-1.8,0-6.3-2.65-8.7t-9.65-2.4a47.42,47.42,0,0,0-11,1.35Q356.94,262.65,356.44,262.65Zm29.5,20.5a3.31,3.31,0,0,0-.55-2.2,4,4,0,0,0-2.15-.9,54.35,54.35,0,0,0-10-.7h-1.1q-6.4,0-8.75,1.6t-2.35,5.8v.9q0,4.8,2.45,6.7t8.85,1.9h.9a40.62,40.62,0,0,0,8.8-.7,5.42,5.42,0,0,0,3.15-1.65,6.79,6.79,0,0,0,.75-3.75Z" transform="translate(-78.29 -223.97)"/><path class="cls-1" d="M412.44,303.85h-3.7a3.08,3.08,0,0,1-3.2-3.2v-37.9q0-5.6,1.55-7.6t6.25-3.1a40.69,40.69,0,0,1,9.4-1h.6a49.67,49.67,0,0,1,11.1,1q3.4.7,3.4,3.9v2.4q0,3.2-3.1,3.2a33.93,33.93,0,0,1-3.75-.7,31.57,31.57,0,0,0-6.65-.7H424a33.26,33.26,0,0,0-5.4.5,3.33,3.33,0,0,0-2.35,1.4,6.4,6.4,0,0,0-.55,3v35.6a3,3,0,0,1-1,2.3A3.29,3.29,0,0,1,412.44,303.85Z" transform="translate(-78.29 -223.97)"/><path class="cls-1" d="M467,304.35h-.6q-9.8,0-14-5.1t-4.15-18.9v-17.9q0-1.8-1.7-1.8h-2.2a3.08,3.08,0,0,1-3.2-3.2v-2.6a3.29,3.29,0,0,1,.9-2.35,3,3,0,0,1,2.3-.95h2.2a1.5,1.5,0,0,0,1.7-1.7V243a3.29,3.29,0,0,1,.9-2.35,3.15,3.15,0,0,1,2.4-1h3.7a3,3,0,0,1,2.3,1,3.29,3.29,0,0,1,.9,2.35v6.8q0,1.7,1.8,1.7h13.4a3,3,0,0,1,2.3.95,3.29,3.29,0,0,1,.9,2.35v2.6a3.08,3.08,0,0,1-3.2,3.2h-13.4a1.59,1.59,0,0,0-1.8,1.8v18.9q0,8.1,1.9,11t6.4,2.9h.4a21.08,21.08,0,0,0,5.5-.7,20.29,20.29,0,0,1,3.1-.7q2.8,0,2.8,3.1v2.5q0,3.1-3.7,4.1A40.29,40.29,0,0,1,467,304.35Z" transform="translate(-78.29 -223.97)"/><path class="cls-1" d="M207.58,325c0,8.46-5.22,10.44-9.63,10.44h-4.8V314.8h4.26C202.57,314.8,207.58,316.45,207.58,325Zm-11.85-8.1v16.47h2.43c3.3,0,6.63-1.44,6.63-8.37,0-7.11-3.48-8.1-6.84-8.1Z" transform="translate(-78.29 -223.97)"/><path class="cls-1" d="M230.59,316.9h-8.13v7h7V326h-7v7.38h8.64v2.1H219.88V314.8h11Z" transform="translate(-78.29 -223.97)"/><path class="cls-1" d="M254,316.9h-8.13v7h7V326h-7v7.38h8.64v2.1H243.28V314.8h11Z" transform="translate(-78.29 -223.97)"/><path class="cls-1" d="M279.88,321.13c0,4.71-3.39,6.63-7.92,6.63h-2.7v7.68h-2.58V314.8H272C276.88,314.8,279.88,316.81,279.88,321.13Zm-2.76,0c0-3.18-2-4.32-5.19-4.32h-2.67v8.85h2.61C275,325.69,277.12,324.73,277.12,321.16Z" transform="translate(-78.29 -223.97)"/><path class="cls-1" d="M309.64,335.44h-2.58V314.8h2.58Z" transform="translate(-78.29 -223.97)"/><path class="cls-1" d="M337.56,335.44h-3.48l-8.7-17.79c.15,1.65.36,4,.36,7.83v10h-2.43V314.8h3.39l8.76,17.82c-.06-.57-.33-3.72-.33-6.27V314.8h2.43Z" transform="translate(-78.29 -223.97)"/><path class="cls-1" d="M362.5,316.81l-1.41,1.59a7.12,7.12,0,0,0-4.74-1.8c-2.19,0-3.84,1-3.84,3.06,0,1.83.87,2.7,4.59,3.84,3.39,1,6.06,2.34,6.06,6.21,0,3.6-2.7,6.09-7.23,6.09a9.6,9.6,0,0,1-6.93-2.64l1.47-1.65a7.83,7.83,0,0,0,5.43,2.13c2.52,0,4.56-1.29,4.56-3.84,0-2.13-1-3.06-4.56-4.14-4-1.23-6.06-2.76-6.06-5.91s2.64-5.31,6.39-5.31A8.48,8.48,0,0,1,362.5,316.81Z" transform="translate(-78.29 -223.97)"/><path class="cls-1" d="M377.65,335.44h-2.58V314.8h2.58Z" transform="translate(-78.29 -223.97)"/><path class="cls-1" d="M404.92,316.66l-1.53,1.59a6.68,6.68,0,0,0-4.56-1.65c-3,0-6.09,2.31-6.09,8.49s2.13,8.55,5.85,8.55a7.91,7.91,0,0,0,4-1V326.2h-3.75l-.3-2.13h6.63V334a12.7,12.7,0,0,1-6.78,1.8c-5.1,0-8.43-3.57-8.43-10.71,0-7,4.23-10.65,8.79-10.65A8.73,8.73,0,0,1,404.92,316.66Z" transform="translate(-78.29 -223.97)"/><path class="cls-1" d="M429.21,325.66h-9v9.78h-2.58V314.8h2.58v8.7h9v-8.7h2.61v20.64h-2.61Z" transform="translate(-78.29 -223.97)"/><path class="cls-1" d="M457.17,317h-5.79v18.42H448.8V317h-5.94V314.8h14.61Z" transform="translate(-78.29 -223.97)"/><path class="cls-1" d="M479.17,316.81l-1.41,1.59a7.12,7.12,0,0,0-4.74-1.8c-2.19,0-3.84,1-3.84,3.06,0,1.83.87,2.7,4.59,3.84,3.39,1,6.06,2.34,6.06,6.21,0,3.6-2.7,6.09-7.23,6.09a9.6,9.6,0,0,1-6.93-2.64l1.47-1.65a7.83,7.83,0,0,0,5.43,2.13c2.52,0,4.56-1.29,4.56-3.84,0-2.13-1-3.06-4.56-4.14-4-1.23-6.06-2.76-6.06-5.91s2.64-5.31,6.39-5.31A8.48,8.48,0,0,1,479.17,316.81Z" transform="translate(-78.29 -223.97)"/><g id="ARC"><path class="cls-1" d="M116.54,235.75a2.66,2.66,0,1,0,4.12,0,5.79,5.79,0,0,1,0-7.35,2.69,2.69,0,1,0-4.14,0A5.79,5.79,0,0,1,116.54,235.75Z" transform="translate(-78.29 -223.97)"/></g><g id="ARC-2" data-name="ARC"><path class="cls-1" d="M111.16,251.87a2.66,2.66,0,1,0,4.12,0,5.79,5.79,0,0,1,0-7.35,2.69,2.69,0,1,0-4.14,0A5.79,5.79,0,0,1,111.16,251.87Z" transform="translate(-78.29 -223.97)"/></g><g id="ARC-3" data-name="ARC"><path class="cls-1" d="M159.53,289.49a2.66,2.66,0,1,0,4.12,0,5.79,5.79,0,0,1,0-7.35,2.69,2.69,0,1,0-4.14,0A5.79,5.79,0,0,1,159.53,289.49Z" transform="translate(-78.29 -223.97)"/></g><g id="ARC-4" data-name="ARC"><path class="cls-1" d="M154.16,305.59a2.66,2.66,0,1,0,4.12,0,5.79,5.79,0,0,1,0-7.35,2.69,2.69,0,1,0-4.14,0A5.79,5.79,0,0,1,154.16,305.59Z" transform="translate(-78.29 -223.97)"/></g><g id="ARC-5" data-name="ARC"><path class="cls-1" d="M154.16,273.37a2.66,2.66,0,1,0,4.12,0,5.79,5.79,0,0,1,0-7.35,2.69,2.69,0,1,0-4.14,0A5.79,5.79,0,0,1,154.16,273.37Z" transform="translate(-78.29 -223.97)"/></g><g id="ARC-6" data-name="ARC"><path class="cls-1" d="M148.78,311a2.66,2.66,0,1,0,4.12,0,5.79,5.79,0,0,1,0-7.35,2.69,2.69,0,1,0-4.14,0A5.79,5.79,0,0,1,148.78,311Z" transform="translate(-78.29 -223.97)"/></g><g id="ARC-7" data-name="ARC"><path class="cls-1" d="M143.41,294.84a2.66,2.66,0,1,0,4.12,0,5.79,5.79,0,0,1,0-7.35,2.69,2.69,0,1,0-4.14,0A5.79,5.79,0,0,1,143.41,294.84Z" transform="translate(-78.29 -223.97)"/></g><g id="ARC-8" data-name="ARC"><path class="cls-1" d="M138,300.21a2.66,2.66,0,1,0,4.12,0,5.79,5.79,0,0,1,0-7.35,2.69,2.69,0,1,0-4.14,0A5.79,5.79,0,0,1,138,300.21Z" transform="translate(-78.29 -223.97)"/></g><g id="ARC-9" data-name="ARC"><path class="cls-1" d="M132.66,305.59a2.66,2.66,0,1,0,4.12,0,5.79,5.79,0,0,1,0-7.35,2.69,2.69,0,1,0-4.14,0A5.79,5.79,0,0,1,132.66,305.59Z" transform="translate(-78.29 -223.97)"/></g><g id="ARC-10" data-name="ARC"><path class="cls-1" d="M105.79,268a2.66,2.66,0,1,0,4.12,0,5.79,5.79,0,0,1,0-7.35,2.69,2.69,0,1,0-4.14,0A5.79,5.79,0,0,1,105.79,268Z" transform="translate(-78.29 -223.97)"/></g><g id="ARC-11" data-name="ARC"><path class="cls-1" d="M111.16,273.34a2.66,2.66,0,1,0,4.12,0,5.79,5.79,0,0,1,0-7.35,2.69,2.69,0,1,0-4.14,0A5.79,5.79,0,0,1,111.16,273.34Z" transform="translate(-78.29 -223.97)"/></g><g id="ARC-12" data-name="ARC"><path class="cls-1" d="M148.78,268a2.66,2.66,0,1,0,4.12,0,5.79,5.79,0,0,1,0-7.35,2.69,2.69,0,1,0-4.14,0A5.79,5.79,0,0,1,148.78,268Z" transform="translate(-78.29 -223.97)"/></g><g id="ARC-13" data-name="ARC"><path class="cls-1" d="M143.41,273.34a2.66,2.66,0,1,0,4.12,0,5.79,5.79,0,0,1,0-7.35,2.69,2.69,0,1,0-4.14,0A5.79,5.79,0,0,1,143.41,273.34Z" transform="translate(-78.29 -223.97)"/></g><g id="ARC-14" data-name="ARC"><path class="cls-1" d="M132.66,284.12a2.66,2.66,0,1,0,4.12,0,5.79,5.79,0,0,1,0-7.35,2.69,2.69,0,1,0-4.14,0A5.79,5.79,0,0,1,132.66,284.12Z" transform="translate(-78.29 -223.97)"/></g><g id="ARC-15" data-name="ARC"><path class="cls-1" d="M89.66,273.37a2.66,2.66,0,1,0,4.12,0,5.79,5.79,0,0,1,0-7.35,2.69,2.69,0,1,0-4.14,0A5.79,5.79,0,0,1,89.66,273.37Z" transform="translate(-78.29 -223.97)"/></g><g id="ARC-16" data-name="ARC"><path class="cls-1" d="M100.41,284.12a2.66,2.66,0,1,0,4.12,0,5.79,5.79,0,0,1,0-7.35,2.69,2.69,0,1,0-4.14,0A5.79,5.79,0,0,1,100.41,284.12Z" transform="translate(-78.29 -223.97)"/></g><g id="ARC-17" data-name="ARC"><path class="cls-1" d="M78.92,284.12a2.66,2.66,0,1,0,4.12,0,5.79,5.79,0,0,1,0-7.35,2.69,2.69,0,1,0-4.14,0A5.79,5.79,0,0,1,78.92,284.12Z" transform="translate(-78.29 -223.97)"/></g><g id="ARC-18" data-name="ARC"><path class="cls-1" d="M84.29,300.21a2.66,2.66,0,1,0,4.12,0,5.79,5.79,0,0,1,0-7.35,2.69,2.69,0,1,0-4.14,0A5.79,5.79,0,0,1,84.29,300.21Z" transform="translate(-78.29 -223.97)"/></g><g id="ARC-19" data-name="ARC"><path class="cls-1" d="M105.79,332.46a2.66,2.66,0,1,0,4.12,0,5.79,5.79,0,0,1,0-7.35,2.69,2.69,0,1,0-4.14,0A5.79,5.79,0,0,1,105.79,332.46Z" transform="translate(-78.29 -223.97)"/></g><g id="ARC-20" data-name="ARC"><path class="cls-1" d="M105.79,343.21a2.66,2.66,0,1,0,4.12,0,5.79,5.79,0,0,1,0-7.35,2.69,2.69,0,1,0-4.14,0A5.79,5.79,0,0,1,105.79,343.21Z" transform="translate(-78.29 -223.97)"/></g><g id="ARC-21" data-name="ARC"><path class="cls-1" d="M95,300.21a2.66,2.66,0,1,0,4.12,0,5.79,5.79,0,0,1,0-7.35,2.69,2.69,0,1,0-4.14,0A5.79,5.79,0,0,1,95,300.21Z" transform="translate(-78.29 -223.97)"/></g><g id="ARC-22" data-name="ARC"><path class="cls-1" d="M78.92,316.36a2.66,2.66,0,1,0,4.12,0A5.79,5.79,0,0,1,83,309a2.69,2.69,0,1,0-4.14,0A5.79,5.79,0,0,1,78.92,316.36Z" transform="translate(-78.29 -223.97)"/></g><g id="ARC-23" data-name="ARC"><path class="cls-1" d="M89.66,327.11a2.66,2.66,0,1,0,4.12,0,5.79,5.79,0,0,1,0-7.35,2.69,2.69,0,1,0-4.14,0A5.79,5.79,0,0,1,89.66,327.11Z" transform="translate(-78.29 -223.97)"/></g><g id="ARC-24" data-name="ARC"><path class="cls-1" d="M95,321.71a2.66,2.66,0,1,0,4.12,0,5.79,5.79,0,0,1,0-7.35,2.69,2.69,0,1,0-4.14,0A5.79,5.79,0,0,1,95,321.71Z" transform="translate(-78.29 -223.97)"/></g><g id="ARC-25" data-name="ARC"><path class="cls-1" d="M105.79,289.46a2.66,2.66,0,1,0,4.12,0,5.79,5.79,0,0,1,0-7.35,2.69,2.69,0,1,0-4.14,0A5.79,5.79,0,0,1,105.79,289.46Z" transform="translate(-78.29 -223.97)"/></g><g id="ARC-26" data-name="ARC"><path class="cls-1" d="M105.79,311a2.66,2.66,0,1,0,4.12,0,5.79,5.79,0,0,1,0-7.35,2.69,2.69,0,1,0-4.14,0A5.79,5.79,0,0,1,105.79,311Z" transform="translate(-78.29 -223.97)"/></g><g id="ARC-27" data-name="ARC"><path class="cls-1" d="M116.54,300.24a2.66,2.66,0,1,0,4.12,0,5.79,5.79,0,0,1,0-7.35,2.69,2.69,0,1,0-4.14,0A5.79,5.79,0,0,1,116.54,300.24Z" transform="translate(-78.29 -223.97)"/></g><g id="ARC-28" data-name="ARC"><path class="cls-1" d="M111.16,337.83a2.66,2.66,0,1,0,4.12,0,5.79,5.79,0,0,1,0-7.35,2.69,2.69,0,1,0-4.14,0A5.79,5.79,0,0,1,111.16,337.83Z" transform="translate(-78.29 -223.97)"/></g><g id="ARC-29" data-name="ARC"><path class="cls-1" d="M100.41,316.36a2.66,2.66,0,1,0,4.12,0,5.79,5.79,0,0,1,0-7.35,2.69,2.69,0,1,0-4.14,0A5.79,5.79,0,0,1,100.41,316.36Z" transform="translate(-78.29 -223.97)"/></g><g id="ARC-30" data-name="ARC"><path class="cls-1" d="M121.91,337.83a2.66,2.66,0,1,0,4.12,0,5.79,5.79,0,0,1,0-7.35,2.69,2.69,0,1,0-4.14,0A5.79,5.79,0,0,1,121.91,337.83Z" transform="translate(-78.29 -223.97)"/></g><g id="ARC-31" data-name="ARC"><path class="cls-1" d="M121.91,316.36a2.66,2.66,0,1,0,4.12,0,5.79,5.79,0,0,1,0-7.35,2.69,2.69,0,1,0-4.14,0A5.79,5.79,0,0,1,121.91,316.36Z" transform="translate(-78.29 -223.97)"/></g><g id="ARC-32" data-name="ARC"><path class="cls-1" d="M138,343.23a2.66,2.66,0,1,0,4.12,0,5.79,5.79,0,0,1,0-7.35,2.69,2.69,0,1,0-4.14,0A5.79,5.79,0,0,1,138,343.23Z" transform="translate(-78.29 -223.97)"/></g><g id="ARC-33" data-name="ARC"><path class="cls-1" d="M164.91,316.36a2.66,2.66,0,1,0,4.12,0,5.79,5.79,0,0,1,0-7.35,2.69,2.69,0,1,0-4.14,0A5.79,5.79,0,0,1,164.91,316.36Z" transform="translate(-78.29 -223.97)"/></g><g id="ARC-34" data-name="ARC"><path class="cls-1" d="M170.28,321.71a2.66,2.66,0,1,0,4.12,0,5.79,5.79,0,0,1,0-7.35,2.69,2.69,0,1,0-4.14,0A5.79,5.79,0,0,1,170.28,321.71Z" transform="translate(-78.29 -223.97)"/></g><g id="ARC-35" data-name="ARC"><path class="cls-1" d="M170.28,300.21a2.66,2.66,0,1,0,4.12,0,5.79,5.79,0,0,1,0-7.35,2.69,2.69,0,1,0-4.14,0A5.79,5.79,0,0,1,170.28,300.21Z" transform="translate(-78.29 -223.97)"/></g><g id="ARC-36" data-name="ARC"><path class="cls-1" d="M175.66,294.84a2.66,2.66,0,1,0,4.12,0,5.79,5.79,0,0,1,0-7.35,2.69,2.69,0,1,0-4.14,0A5.79,5.79,0,0,1,175.66,294.84Z" transform="translate(-78.29 -223.97)"/></g><g id="ARC-37" data-name="ARC"><path class="cls-1" d="M164.91,294.84a2.66,2.66,0,1,0,4.12,0,5.79,5.79,0,0,1,0-7.35,2.69,2.69,0,1,0-4.14,0A5.79,5.79,0,0,1,164.91,294.84Z" transform="translate(-78.29 -223.97)"/></g><g id="ARC-38" data-name="ARC"><path class="cls-1" d="M164.91,327.11a2.66,2.66,0,1,0,4.12,0,5.79,5.79,0,0,1,0-7.35,2.69,2.69,0,1,0-4.14,0A5.79,5.79,0,0,1,164.91,327.11Z" transform="translate(-78.29 -223.97)"/></g><g id="ARC-39" data-name="ARC"><path class="cls-1" d="M154.16,337.86a2.66,2.66,0,1,0,4.12,0,5.79,5.79,0,0,1,0-7.35,2.69,2.69,0,1,0-4.14,0A5.79,5.79,0,0,1,154.16,337.86Z" transform="translate(-78.29 -223.97)"/></g><g id="ARC-40" data-name="ARC"><path class="cls-1" d="M132.66,337.83a2.66,2.66,0,1,0,4.12,0,5.79,5.79,0,0,1,0-7.35,2.69,2.69,0,1,0-4.14,0A5.79,5.79,0,0,1,132.66,337.83Z" transform="translate(-78.29 -223.97)"/></g><g id="ARC-41" data-name="ARC"><path class="cls-1" d="M116.54,332.49a2.66,2.66,0,1,0,4.12,0,5.79,5.79,0,0,1,0-7.35,2.69,2.69,0,1,0-4.14,0A5.79,5.79,0,0,1,116.54,332.49Z" transform="translate(-78.29 -223.97)"/></g><g id="ARC-42" data-name="ARC"><path class="cls-1" d="M143.41,327.11a2.66,2.66,0,1,0,4.12,0,5.79,5.79,0,0,1,0-7.35,2.69,2.69,0,1,0-4.14,0A5.79,5.79,0,0,1,143.41,327.11Z" transform="translate(-78.29 -223.97)"/></g><g id="ARC-43" data-name="ARC"><path class="cls-1" d="M111.16,305.61a2.66,2.66,0,1,0,4.12,0,5.79,5.79,0,0,1,0-7.35,2.69,2.69,0,1,0-4.14,0A5.79,5.79,0,0,1,111.16,305.61Z" transform="translate(-78.29 -223.97)"/></g><g id="ARC-44" data-name="ARC"><path class="cls-1" d="M121.91,294.86a2.66,2.66,0,1,0,4.12,0,5.79,5.79,0,0,1,0-7.35,2.69,2.69,0,1,0-4.14,0A5.79,5.79,0,0,1,121.91,294.86Z" transform="translate(-78.29 -223.97)"/></g><g id="ARC-45" data-name="ARC"><path class="cls-1" d="M111.16,294.84a2.66,2.66,0,1,0,4.12,0,5.79,5.79,0,0,1,0-7.35,2.69,2.69,0,1,0-4.14,0A5.79,5.79,0,0,1,111.16,294.84Z" transform="translate(-78.29 -223.97)"/></g><g id="ARC-46" data-name="ARC"><path class="cls-1" d="M100.41,262.59a2.66,2.66,0,1,0,4.12,0,5.79,5.79,0,0,1,0-7.35,2.69,2.69,0,1,0-4.14,0A5.79,5.79,0,0,1,100.41,262.59Z" transform="translate(-78.29 -223.97)"/></g><g id="ARC-47" data-name="ARC"><path class="cls-1" d="M89.66,251.87a2.66,2.66,0,1,0,4.12,0,5.79,5.79,0,0,1,0-7.35,2.69,2.69,0,1,0-4.14,0A5.79,5.79,0,0,1,89.66,251.87Z" transform="translate(-78.29 -223.97)"/></g><g id="ARC-48" data-name="ARC"><path class="cls-1" d="M98.76,246.1a2.66,2.66,0,1,0,0,4.12,5.79,5.79,0,0,1,7.35,0,2.69,2.69,0,1,0,0-4.14A5.79,5.79,0,0,1,98.76,246.1Z" transform="translate(-78.29 -223.97)"/></g><g id="ARC-49" data-name="ARC"><path class="cls-1" d="M88,256.84A2.66,2.66,0,1,0,88,261a5.79,5.79,0,0,1,7.35,0,2.69,2.69,0,1,0,0-4.14A5.79,5.79,0,0,1,88,256.84Z" transform="translate(-78.29 -223.97)"/></g><g id="ARC-50" data-name="ARC"><path class="cls-1" d="M109.53,256.84a2.66,2.66,0,1,0,0,4.12,5.79,5.79,0,0,1,7.35,0,2.69,2.69,0,1,0,0-4.14A5.79,5.79,0,0,1,109.53,256.84Z" transform="translate(-78.29 -223.97)"/></g><g id="ARC-51" data-name="ARC"><path class="cls-1" d="M114.88,337.46a2.66,2.66,0,1,0,0,4.12,5.79,5.79,0,0,1,7.35,0,2.69,2.69,0,1,0,0-4.14A5.79,5.79,0,0,1,114.88,337.46Z" transform="translate(-78.29 -223.97)"/></g><g id="ARC-52" data-name="ARC"><path class="cls-1" d="M98.76,332.09a2.66,2.66,0,1,0,0,4.12,5.79,5.79,0,0,1,7.35,0,2.69,2.69,0,1,0,0-4.14A5.79,5.79,0,0,1,98.76,332.09Z" transform="translate(-78.29 -223.97)"/></g><g id="ARC-53" data-name="ARC"><path class="cls-1" d="M93.41,273a2.66,2.66,0,1,0,0,4.12,5.79,5.79,0,0,1,7.35,0,2.69,2.69,0,1,0,0-4.14A5.79,5.79,0,0,1,93.41,273Z" transform="translate(-78.29 -223.97)"/></g><g id="ARC-54" data-name="ARC"><path class="cls-1" d="M114.9,283.72a2.66,2.66,0,1,0,0,4.12,5.79,5.79,0,0,1,7.35,0,2.69,2.69,0,1,0,0-4.14A5.79,5.79,0,0,1,114.9,283.72Z" transform="translate(-78.29 -223.97)"/></g><g id="ARC-55" data-name="ARC"><path class="cls-1" d="M114.88,273a2.66,2.66,0,1,0,0,4.12,5.79,5.79,0,0,1,7.35,0,2.69,2.69,0,1,0,0-4.14A5.79,5.79,0,0,1,114.88,273Z" transform="translate(-78.29 -223.97)"/></g><g id="ARC-56" data-name="ARC"><path class="cls-1" d="M93.38,283.72a2.66,2.66,0,1,0,0,4.12,5.79,5.79,0,0,1,7.35,0,2.69,2.69,0,1,0,0-4.14A5.79,5.79,0,0,1,93.38,283.72Z" transform="translate(-78.29 -223.97)"/></g><g id="ARC-57" data-name="ARC"><path class="cls-1" d="M88,278.34a2.66,2.66,0,1,0,0,4.12,5.79,5.79,0,0,1,7.35,0,2.69,2.69,0,1,0,0-4.14A5.79,5.79,0,0,1,88,278.34Z" transform="translate(-78.29 -223.97)"/></g><g id="ARC-58" data-name="ARC"><path class="cls-1" d="M109.5,342.84a2.66,2.66,0,1,0,0,4.12,5.79,5.79,0,0,1,7.35,0,2.69,2.69,0,1,0,0-4.14A5.79,5.79,0,0,1,109.5,342.84Z" transform="translate(-78.29 -223.97)"/></g><g id="ARC-59" data-name="ARC"><path class="cls-1" d="M114.9,316a2.66,2.66,0,1,0,0,4.12,5.79,5.79,0,0,1,7.35,0,2.69,2.69,0,1,0,0-4.14A5.79,5.79,0,0,1,114.9,316Z" transform="translate(-78.29 -223.97)"/></g><g id="ARC-60" data-name="ARC"><path class="cls-1" d="M136.38,316a2.66,2.66,0,1,0,0,4.12,5.79,5.79,0,0,1,7.35,0,2.69,2.69,0,1,0,0-4.14A5.79,5.79,0,0,1,136.38,316Z" transform="translate(-78.29 -223.97)"/></g><g id="ARC-61" data-name="ARC"><path class="cls-1" d="M136.38,326.71a2.66,2.66,0,1,0,0,4.12,5.79,5.79,0,0,1,7.35,0,2.69,2.69,0,1,0,0-4.14A5.79,5.79,0,0,1,136.38,326.71Z" transform="translate(-78.29 -223.97)"/></g><g id="ARC-62" data-name="ARC"><path class="cls-1" d="M147.15,326.71a2.66,2.66,0,1,0,0,4.12,5.79,5.79,0,0,1,7.35,0,2.69,2.69,0,1,0,0-4.14A5.79,5.79,0,0,1,147.15,326.71Z" transform="translate(-78.29 -223.97)"/></g><g id="ARC-63" data-name="ARC"><path class="cls-1" d="M147.15,337.46a2.66,2.66,0,1,0,0,4.12,5.79,5.79,0,0,1,7.35,0,2.69,2.69,0,1,0,0-4.14A5.79,5.79,0,0,1,147.15,337.46Z" transform="translate(-78.29 -223.97)"/></g><g id="ARC-64" data-name="ARC"><path class="cls-1" d="M93.41,305.21a2.66,2.66,0,1,0,0,4.12,5.79,5.79,0,0,1,7.35,0,2.69,2.69,0,1,0,0-4.14A5.79,5.79,0,0,1,93.41,305.21Z" transform="translate(-78.29 -223.97)"/></g><g id="ARC-65" data-name="ARC"><path class="cls-1" d="M82.66,316a2.66,2.66,0,1,0,0,4.12,5.79,5.79,0,0,1,7.35,0,2.69,2.69,0,1,0,0-4.14A5.79,5.79,0,0,1,82.66,316Z" transform="translate(-78.29 -223.97)"/></g><g id="ARC-66" data-name="ARC"><path class="cls-1" d="M109.53,310.59a2.66,2.66,0,1,0,0,4.12,5.79,5.79,0,0,1,7.35,0,2.69,2.69,0,1,0,0-4.14A5.79,5.79,0,0,1,109.53,310.59Z" transform="translate(-78.29 -223.97)"/></g><g id="ARC-67" data-name="ARC"><path class="cls-1" d="M114.9,262.22a2.66,2.66,0,1,0,0,4.12,5.79,5.79,0,0,1,7.35,0,2.69,2.69,0,1,0,0-4.14A5.79,5.79,0,0,1,114.9,262.22Z" transform="translate(-78.29 -223.97)"/></g><g id="ARC-68" data-name="ARC"><path class="cls-1" d="M104.13,240.72a2.66,2.66,0,1,0,0,4.12,5.79,5.79,0,0,1,7.35,0,2.69,2.69,0,1,0,0-4.14A5.79,5.79,0,0,1,104.13,240.72Z" transform="translate(-78.29 -223.97)"/></g><g id="ARC-69" data-name="ARC"><path class="cls-1" d="M98.78,235.35a2.66,2.66,0,1,0,0,4.12,5.79,5.79,0,0,1,7.35,0,2.69,2.69,0,1,0,0-4.14A5.79,5.79,0,0,1,98.78,235.35Z" transform="translate(-78.29 -223.97)"/></g><g id="ARC-70" data-name="ARC"><path class="cls-1" d="M114.9,251.47a2.66,2.66,0,1,0,0,4.12,5.79,5.79,0,0,1,7.35,0,2.69,2.69,0,1,0,0-4.14A5.79,5.79,0,0,1,114.9,251.47Z" transform="translate(-78.29 -223.97)"/></g><g id="ARC-71" data-name="ARC"><path class="cls-1" d="M136.4,262.22a2.66,2.66,0,1,0,0,4.12,5.79,5.79,0,0,1,7.35,0,2.69,2.69,0,1,0,0-4.14A5.79,5.79,0,0,1,136.4,262.22Z" transform="translate(-78.29 -223.97)"/></g><g id="ARC-72" data-name="ARC"><path class="cls-1" d="M136.38,273a2.66,2.66,0,1,0,0,4.12,5.79,5.79,0,0,1,7.35,0,2.69,2.69,0,1,0,0-4.14A5.79,5.79,0,0,1,136.38,273Z" transform="translate(-78.29 -223.97)"/></g><g id="ARC-73" data-name="ARC"><path class="cls-1" d="M152.5,278.34a2.66,2.66,0,1,0,0,4.12,5.79,5.79,0,0,1,7.35,0,2.69,2.69,0,1,0,0-4.14A5.79,5.79,0,0,1,152.5,278.34Z" transform="translate(-78.29 -223.97)"/></g><g id="ARC-74" data-name="ARC"><path class="cls-1" d="M147.15,294.46a2.66,2.66,0,1,0,0,4.12,5.79,5.79,0,0,1,7.35,0,2.69,2.69,0,1,0,0-4.14A5.79,5.79,0,0,1,147.15,294.46Z" transform="translate(-78.29 -223.97)"/></g><g id="ARC-75" data-name="ARC"><path class="cls-1" d="M152.5,289.09a2.66,2.66,0,1,0,0,4.12,5.79,5.79,0,0,1,7.35,0,2.69,2.69,0,1,0,0-4.14A5.79,5.79,0,0,1,152.5,289.09Z" transform="translate(-78.29 -223.97)"/></g><g id="ARC-76" data-name="ARC"><path class="cls-1" d="M136.4,305.21a2.66,2.66,0,1,0,0,4.12,5.79,5.79,0,0,1,7.35,0,2.69,2.69,0,1,0,0-4.14A5.79,5.79,0,0,1,136.4,305.21Z" transform="translate(-78.29 -223.97)"/></g><g id="ARC-77" data-name="ARC"><path class="cls-1" d="M141.78,278.34a2.66,2.66,0,1,0,0,4.12,5.79,5.79,0,0,1,7.35,0,2.69,2.69,0,1,0,0-4.14A5.79,5.79,0,0,1,141.78,278.34Z" transform="translate(-78.29 -223.97)"/></g><circle class="cls-1" cx="83.3" cy="34.93" r="2.69"/><circle class="cls-1" cx="99.43" cy="51.06" r="2.69"/><circle class="cls-1" cx="40.31" cy="24.19" r="2.69"/><circle class="cls-1" cx="18.81" cy="45.68" r="2.69"/><circle class="cls-1" cx="61.81" cy="45.68" r="2.69"/><circle class="cls-1" cx="61.81" cy="34.93" r="2.69"/><circle class="cls-1" cx="77.93" cy="61.81" r="2.69"/><circle class="cls-1" cx="61.81" cy="99.43" r="2.69"/><circle class="cls-1" cx="72.56" cy="110.18" r="2.69"/><circle class="cls-1" cx="83.3" cy="88.68" r="2.69"/><circle class="cls-1" cx="99.43" cy="83.3" r="2.69"/><circle class="cls-1" cx="83.3" cy="110.18" r="2.69"/><circle class="cls-1" cx="61.81" cy="88.68" r="2.69"/><circle class="cls-1" cx="24.19" cy="72.56" r="2.69"/><circle class="cls-1" cx="8.06" cy="45.68" r="2.69"/><circle class="cls-1" cx="40.31" cy="56.43" r="2.69"/><circle class="cls-1" cx="40.31" cy="45.68" r="2.69"/><circle class="cls-1" cx="13.44" cy="72.56" r="2.69"/><circle class="cls-1" cx="2.69" cy="72.56" r="2.69"/><circle class="cls-1" cx="8.06" cy="88.68" r="2.69"/><circle class="cls-1" cx="8.06" cy="99.43" r="2.69"/><circle class="cls-1" cx="24.19" cy="104.8" r="2.69"/><circle class="cls-1" cx="24.19" cy="115.55" r="2.69"/><circle class="cls-1" cx="34.93" cy="8.06" r="2.69"/><circle class="cls-1" cx="24.19" cy="8.06" r="2.69"/><g id="ARC-78" data-name="ARC"><path class="cls-1" d="M141.75,342.83a2.66,2.66,0,1,0,0,4.12,5.79,5.79,0,0,1,7.35,0,2.69,2.69,0,1,0,0-4.14A5.79,5.79,0,0,1,141.75,342.83Z" transform="translate(-78.29 -223.97)"/></g><g id="ARC-79" data-name="ARC"><path class="cls-1" d="M157.9,316a2.66,2.66,0,1,0,0,4.12,5.79,5.79,0,0,1,7.35,0,2.69,2.69,0,1,0,0-4.14A5.79,5.79,0,0,1,157.9,316Z" transform="translate(-78.29 -223.97)"/></g><g id="ARC-80" data-name="ARC"><path class="cls-1" d="M163.27,299.84a2.66,2.66,0,1,0,0,4.12,5.79,5.79,0,0,1,7.35,0,2.69,2.69,0,1,0,0-4.14A5.79,5.79,0,0,1,163.27,299.84Z" transform="translate(-78.29 -223.97)"/></g><g id="ARC-81" data-name="ARC"><path class="cls-1" d="M163.27,267.59a2.66,2.66,0,1,0,0,4.12,5.79,5.79,0,0,1,7.35,0,2.69,2.69,0,1,0,0-4.14A5.79,5.79,0,0,1,163.27,267.59Z" transform="translate(-78.29 -223.97)"/></g><g id="ARC-82" data-name="ARC"><path class="cls-1" d="M141.78,235.35a2.66,2.66,0,1,0,0,4.12,5.79,5.79,0,0,1,7.35,0,2.69,2.69,0,1,0,0-4.14A5.79,5.79,0,0,1,141.78,235.35Z" transform="translate(-78.29 -223.97)"/></g><g id="ARC-83" data-name="ARC"><path class="cls-1" d="M136.38,230a2.66,2.66,0,1,0,0,4.12,5.79,5.79,0,0,1,7.35,0,2.69,2.69,0,1,0,0-4.14A5.79,5.79,0,0,1,136.38,230Z" transform="translate(-78.29 -223.97)"/></g><g id="ARC-84" data-name="ARC"><path class="cls-1" d="M152.53,246.1a2.66,2.66,0,1,0,0,4.12,5.79,5.79,0,0,1,7.35,0,2.69,2.69,0,1,0,0-4.14A5.79,5.79,0,0,1,152.53,246.1Z" transform="translate(-78.29 -223.97)"/></g><g id="ARC-85" data-name="ARC"><path class="cls-1" d="M147.13,251.47a2.66,2.66,0,1,0,0,4.12,5.79,5.79,0,0,1,7.35,0,2.69,2.69,0,1,0,0-4.14A5.79,5.79,0,0,1,147.13,251.47Z" transform="translate(-78.29 -223.97)"/></g><g id="ARC-86" data-name="ARC"><path class="cls-1" d="M152.53,235.35a2.66,2.66,0,1,0,0,4.12,5.79,5.79,0,0,1,7.35,0,2.69,2.69,0,1,0,0-4.14A5.79,5.79,0,0,1,152.53,235.35Z" transform="translate(-78.29 -223.97)"/></g><g id="ARC-87" data-name="ARC"><path class="cls-1" d="M157.9,240.72a2.66,2.66,0,1,0,0,4.12,5.79,5.79,0,0,1,7.35,0,2.69,2.69,0,1,0,0-4.14A5.79,5.79,0,0,1,157.9,240.72Z" transform="translate(-78.29 -223.97)"/></g><g id="ARC-88" data-name="ARC"><path class="cls-1" d="M170.28,278.72a2.66,2.66,0,1,0,4.12,0,5.79,5.79,0,0,1,0-7.35,2.69,2.69,0,1,0-4.14,0A5.79,5.79,0,0,1,170.28,278.72Z" transform="translate(-78.29 -223.97)"/></g><g id="ARC-89" data-name="ARC"><path class="cls-1" d="M170.28,268a2.66,2.66,0,1,0,4.12,0,5.79,5.79,0,0,1,0-7.35,2.69,2.69,0,1,0-4.14,0A5.79,5.79,0,0,1,170.28,268Z" transform="translate(-78.29 -223.97)"/></g><g id="ARC-90" data-name="ARC"><path class="cls-1" d="M152.53,321.34a2.66,2.66,0,1,0,0,4.12,5.79,5.79,0,0,1,7.35,0,2.69,2.69,0,1,0,0-4.14A5.79,5.79,0,0,1,152.53,321.34Z" transform="translate(-78.29 -223.97)"/></g><g id="ARC-91" data-name="ARC"><path class="cls-1" d="M164.91,262.59a2.66,2.66,0,1,0,4.12,0,5.79,5.79,0,0,1,0-7.35,2.69,2.69,0,1,0-4.14,0A5.79,5.79,0,0,1,164.91,262.59Z" transform="translate(-78.29 -223.97)"/></g><g id="ARC-92" data-name="ARC"><path class="cls-1" d="M143.41,251.87a2.66,2.66,0,1,0,4.12,0,5.79,5.79,0,0,1,0-7.35,2.69,2.69,0,1,0-4.14,0A5.79,5.79,0,0,1,143.41,251.87Z" transform="translate(-78.29 -223.97)"/></g><g id="ARC-93" data-name="ARC"><path class="cls-1" d="M148.78,246.49a2.66,2.66,0,1,0,4.12,0,5.79,5.79,0,0,1,0-7.35,2.69,2.69,0,1,0-4.14,0A5.79,5.79,0,0,1,148.78,246.49Z" transform="translate(-78.29 -223.97)"/></g><g id="ARC-94" data-name="ARC"><path class="cls-1" d="M132.66,251.87a2.66,2.66,0,1,0,4.12,0,5.79,5.79,0,0,1,0-7.35,2.69,2.69,0,1,0-4.14,0A5.79,5.79,0,0,1,132.66,251.87Z" transform="translate(-78.29 -223.97)"/></g><g id="ARC-95" data-name="ARC"><path class="cls-1" d="M121.91,241.09a2.66,2.66,0,1,0,4.12,0,5.79,5.79,0,0,1,0-7.35,2.69,2.69,0,1,0-4.14,0A5.79,5.79,0,0,1,121.91,241.09Z" transform="translate(-78.29 -223.97)"/></g><g id="ARC-96" data-name="ARC"><path class="cls-1" d="M164.91,284.09a2.66,2.66,0,1,0,4.12,0,5.79,5.79,0,0,1,0-7.35,2.69,2.69,0,1,0-4.14,0A5.79,5.79,0,0,1,164.91,284.09Z" transform="translate(-78.29 -223.97)"/></g><g id="ARC-97" data-name="ARC"><path class="cls-1" d="M138,246.47a2.66,2.66,0,1,0,4.12,0,5.79,5.79,0,0,1,0-7.35,2.69,2.69,0,1,0-4.14,0A5.79,5.79,0,0,1,138,246.47Z" transform="translate(-78.29 -223.97)"/></g><circle class="cls-1" cx="61.81" cy="2.69" r="2.69"/><circle class="cls-1" cx="77.93" cy="8.06" r="2.69"/></svg>